<svg width="890" height="147" viewBox="0 0 890 147" fill="none" xmlns="http://www.w3.org/2000/svg">
<g clip-path="url(#clip0_1_50)">
<path d="M149.065 0.666168L125.688 24.2991L129.367 30.2335L157.34 8.06874C157.34 8.06874 157.674 3.58928 156.276 2.15496C154.563 0.397466 149.065 0.666168 149.065 0.666168Z" fill="url(#paint0_linear_1_50)"/>
<path d="M133.012 23.5228L141.946 22.2465L140.67 25.3097L150.625 28.1175L148.583 35.5203L152.667 35.265L151.901 40.3702L155.22 37.8176L151.901 45.2204L155.22 47.7729L152.157 49.5598L155.22 52.3676L152.157 53.8992L154.964 56.0689L152.922 57.8557L155.347 61.557L151.008 62.578L151.646 64.2372L155.092 66.024L151.135 67.3003L154.837 71.2568L149.476 71.0016L152.156 74.32L150.114 74.0647L152.412 76.2344L147.945 75.8515L150.114 78.2765L145.775 77.766L147.179 80.8291L146.924 82.233L147.689 83.5093L145.52 84.1475V86.0619L144.499 86.9554L140.414 88.7422L142.457 91.6777L139.649 92.3159L138.883 93.975L136.33 93.2092L139.011 98.5697H136.458L138.5 100.867L134.926 100.101L134.671 103.802L130.842 103.292L130.076 105.206L133.778 109.929L128.545 108.397L128.034 109.929L130.204 112.354L123.823 110.184L122.802 113.758L122.546 117.842L125.482 120.139L116.675 118.352L118.462 122.309L116.165 122.564L116.803 124.606L113.485 123.713L115.527 128.435L111.443 127.286L111.826 132.392L108.38 130.732V134.051L105.316 129.839L104.04 137.88L95.6163 133.412L95.1058 140.432L94.5953 142.985L89.1072 139.794L89.4901 145.282L86.2993 141.325L85.9164 145.027L84.1296 141.581L83.8743 145.792L77.4928 140.432L73.1534 140.177L69.7074 146.303L65.4956 138.9L60.9009 137.241L54.647 146.175L53.8812 135.71L48.9037 136.22L45.9682 138.517L43.4156 136.603L37.7999 138.645L36.1407 136.603L30.6526 140.304L27.8447 137.369L25.1645 139.411L20.8251 133.412L17.1238 130.094L14.8265 128.945L13.0396 126.393L9.84887 125.372L10.487 123.074L7.93443 120.649L8.31731 117.586L5.3818 116.31L8.44494 112.481L3.33977 111.077L5.25424 105.206L3.7227 103.036L5.63717 101.888L1.55299 99.7179L4.87137 97.0377L0.659561 95.7614L5.89242 93.0812L1.55299 92.0602L5.50948 88.7418L1.4253 85.4234L6.9134 82.105L0.659561 77.8932L8.44487 78.5313L4.10544 75.4682L7.93431 74.3195L3.7225 72.5327L6.27509 71.7669L3.7225 68.5761H8.44481L6.14747 64.7472L9.21061 64.3643L7.67907 61.4288L11.8909 62.7051L9.08305 57.3446L16.2306 57.7275L14.9543 54.9197L18.2727 55.3026L16.3582 47.5173L21.9739 48.4107L18.9108 43.3055L27.3345 46.7516L25.4201 38.711L27.9727 39.0939C27.9727 39.0939 36.7789 39.8597 36.1412 39.732C35.5087 39.5962 35.7639 29.7689 35.7639 29.7689L39.5928 32.832L40.3586 29.2584C40.3586 29.2584 42.6559 30.9176 43.1664 31.1729C43.6769 31.4281 43.8046 25.0467 43.8046 25.0467L50.1861 30.5348L50.569 23.132L52.8663 24.0254L54.5255 23.3873L54.7807 21.0899L59.2478 26.0675V20.3241L61.928 19.3031L65.374 20.8346L66.2674 14.0703L70.2239 19.9413L70.7344 15.4742C70.7344 15.4742 72.0107 15.2189 72.266 14.7084C72.5212 14.1979 72.7765 12.5387 72.7765 12.5387L75.712 14.9636L76.9883 10.369L79.4133 11.6453V9.9861L84.7738 12.7939L86.05 6.92296L88.475 8.83743L89.8789 5.39142L90.7723 9.2203L93.1973 6.66771L95.7499 9.2203L99.7064 5.51904L99.9616 7.30589L103.408 5.90198L104.939 9.60323L108.513 5.39142L108.385 9.60323L110.683 6.7954L110.938 9.85854L113.49 6.7954L113.618 12.794L117.447 8.58218L119.999 13.6874L120.127 17.1334L127.147 14.3255L127.53 18.4097L133.012 23.5228Z" fill="url(#paint1_linear_1_50)"/>
<path d="M68.2772 144.754C68.053 144.392 66.9225 144.093 65.765 144.091C64.6074 144.089 62.5391 143.776 61.1687 143.395C59.3243 142.883 58.0831 142.918 56.3907 143.53C54.3397 144.272 54.0076 144.225 53.1658 143.074C52.5392 142.217 52.4414 141.532 52.8713 141.014C53.292 140.507 53.2679 139.32 52.8018 137.589C52.1503 135.169 51.8782 134.921 49.67 134.735C47.4052 134.544 47.3222 134.461 48.3633 133.427C49.6982 132.1 50.8745 129.22 50.3113 128.657C49.4715 127.818 46.8003 131.261 46.4131 133.682C46.0201 136.14 45.9496 136.196 43.7874 135.791C41.2997 135.324 40.7366 136.418 42.7186 137.867C44.7887 139.381 43.201 139.489 39.2576 138.103C35.4999 136.783 35.3226 136.778 32.7756 137.926C30.1887 139.093 30.1455 139.09 29.2111 137.683C28.3833 136.436 28.0524 136.355 26.5585 137.036C25.1614 137.672 24.7936 137.64 24.5319 136.854C24.356 136.327 22.2549 133.925 19.8627 131.518C11.1052 122.704 9.24727 120.348 9.24727 118.054C9.24727 117.308 9.96644 117.688 11.6569 119.33C12.9822 120.617 14.4661 121.67 14.9546 121.67C15.4431 121.67 15.8428 122 15.8428 122.402C15.8428 122.884 16.6857 122.987 18.3161 122.703C19.6764 122.467 21.6462 122.277 22.6935 122.282C23.7408 122.287 25.4191 121.706 26.4229 120.991C27.4267 120.276 28.4629 119.692 28.7256 119.692C28.9882 119.692 31.266 117.746 33.7873 115.367C37.4788 111.885 38.5525 111.193 39.3003 111.813C40.5587 112.858 42.7492 112.209 46.0573 109.813C48.0279 108.386 48.8204 107.34 48.8204 106.167C48.8204 104.245 49.0167 104.188 51.0448 105.517C52.4331 106.427 52.6647 106.4 53.7479 105.203C54.3995 104.483 55.1429 104.024 55.3998 104.182C55.6568 104.341 57.5889 104.741 59.6934 105.071C64.467 105.82 67.2769 104.593 67.2835 101.758C67.2888 99.5689 66.8512 99.288 62.6631 98.7921C60.7184 98.5617 59.425 98.1005 59.563 97.6865C59.9408 96.5531 64.5506 95.8486 66.1141 96.6854C67.312 97.3265 67.7616 97.0956 69.6153 94.8875C71.2884 92.8948 71.9355 92.513 72.6478 93.0985C73.1459 93.5079 74.2954 93.9526 75.2022 94.0866C76.8303 94.3273 76.8665 94.4796 76.0149 97.506C75.7073 98.5989 75.9886 98.7022 78.5686 98.4426C80.1632 98.2822 81.9874 97.9203 82.6222 97.6384C84.1095 96.978 84.2061 98.7275 82.7489 99.9368C81.465 101.002 79.703 105.12 80.1921 105.911C80.3925 106.235 80.9937 106.501 81.5281 106.501C82.6412 106.501 83.8877 109.201 83.1432 110C82.8707 110.292 80.3633 110.531 77.5712 110.531C71.9939 110.531 71.183 111.109 72.3008 114.288C73.153 116.711 79.565 120.511 82.0252 120.051C84.2792 119.629 86.1402 121.494 86.8027 124.838C87.1997 126.842 87.3879 126.983 89.1592 126.594C90.6365 126.269 91.6048 126.568 93.3224 127.878C94.5533 128.817 95.7147 129.585 95.9032 129.585C96.5239 129.585 98.469 124.931 98.0313 124.493C97.7959 124.257 96.0756 124.046 94.2086 124.022C90.4178 123.974 89.7557 123.237 91.5315 121.044C92.6829 119.622 92.8371 119.602 95.138 120.563C97.2271 121.436 98.0006 121.449 101.047 120.664C102.975 120.167 105.12 119.819 105.814 119.891C106.734 119.986 107.234 119.426 107.663 117.815C108.19 115.836 108.433 115.653 110.029 116.038C111.007 116.273 112.175 116.948 112.625 117.536C113.075 118.124 113.636 118.412 113.873 118.175C114.11 117.939 113.977 117.351 113.578 116.87C113.179 116.389 113.033 115.302 113.255 114.453C113.637 112.992 113.533 112.935 111.249 113.363C108.941 113.796 108.84 113.738 108.85 111.972C108.867 108.831 109.435 108.54 115.234 108.698L120.605 108.845L120.972 107.014C121.275 105.495 121.679 105.182 123.333 105.182C124.63 105.182 125.328 104.849 125.328 104.231C125.328 102.704 124.023 102.327 122.744 103.484C122.094 104.072 121.1 104.377 120.536 104.16C119.973 103.944 118.573 104.252 117.426 104.846C115.266 105.962 113.456 105.383 113.456 103.576C113.456 102.124 117.416 99.7448 119.124 100.17C124.308 101.459 124.009 101.489 124.009 99.6851C124.009 98.7539 123.597 97.7547 123.093 97.4646C122.59 97.1745 122.059 96.3436 121.914 95.6181C121.706 94.5815 121.196 94.3349 119.532 94.4664C117.21 94.6499 117.088 94.4912 118.098 92.603C118.654 91.5644 119.244 91.3959 121.231 91.7078C123.161 92.0107 123.994 91.7965 125.163 90.6965C125.98 89.929 126.647 88.846 126.647 88.2899C126.647 87.4487 126.036 87.3552 123.007 87.7336C121.005 87.9838 118.293 88.7358 116.981 89.4049C113.795 91.029 111.978 90.1663 112.266 87.1661C112.463 85.1027 112.421 85.0681 109.863 85.2256C106.41 85.4382 102.915 83.1589 102.908 80.6901C102.903 78.8262 107.35 74.1827 109.14 74.1827C111.221 74.1827 113.456 75.732 113.456 77.1741C113.456 80.6672 114.27 82.7568 115.63 82.7568C116.373 82.7568 117.501 83.2288 118.139 83.8056C119.514 85.0499 121.501 84.5887 123.36 82.5939C124.461 81.4118 124.885 81.3244 126.328 81.9819C127.7 82.6073 128.08 82.5699 128.383 81.7797C128.891 80.4546 132.379 78.7995 134.663 78.7995C135.773 78.7995 136.541 78.4456 136.541 77.9343C136.541 76.4869 140.393 74.077 142.343 74.3045C143.768 74.4707 144.168 74.2139 144.337 73.0255C144.633 70.9363 142.994 70.5323 139.672 71.8755C138.131 72.4985 136.503 73.1543 136.055 73.3327C135.607 73.5112 134.975 72.9592 134.65 72.1062C134.109 70.6829 133.715 70.5647 129.859 70.6717C123.225 70.8558 119.207 71.5769 117.275 72.9304C115.085 74.4655 111.938 74.5495 110.5 73.1111C108.69 71.3005 109.548 69.3877 113.007 67.5221C114.755 66.5795 116.754 64.8729 117.449 63.7297C118.144 62.5865 119.016 61.6512 119.386 61.6512C119.756 61.6512 121.545 62.3682 123.361 63.2446C126.21 64.6188 126.792 64.7095 127.598 63.9041C129.658 61.8439 134.397 62.9852 138.815 66.6056C140.36 67.8709 142.06 68.9062 142.594 68.9062C143.709 68.9062 146.434 66.2163 146.434 65.1157C146.434 63.9825 144.007 63.4705 142.488 64.2833C140.617 65.2843 139.811 64.5888 140.257 62.3586C140.594 60.675 140.403 60.4088 138.422 59.8057C134.112 58.4935 129.277 58.3282 127.588 59.4352C126.304 60.2766 125.61 60.3302 123.856 59.7234C122.671 59.3133 121.228 58.3569 120.65 57.598C119.788 56.4665 119.356 56.348 118.25 56.9398C117.129 57.5396 116.611 57.3706 115.179 55.9388C113.171 53.9307 113.071 53.2769 114.527 51.668C115.468 50.6287 116.37 50.5328 121.947 50.8794C125.7 51.1126 128.706 51.628 129.298 52.1397C130.051 52.791 130.994 52.8494 133.104 52.3753C135.236 51.8963 136.261 51.9653 137.379 52.6631C138.187 53.1678 140.104 53.7668 141.638 53.994C144.373 54.3992 144.415 54.3764 143.821 52.8138C143.236 51.2744 143.328 51.2127 146.536 50.9945C149.839 50.7699 151.281 51.2754 149.398 51.9979C147.67 52.6609 148.334 54.8953 150.884 56.9966L153.355 59.0336L151.378 60.6484C150.291 61.5366 148.882 62.2739 148.248 62.287C147.613 62.3 147.093 62.7889 147.093 63.3734C147.093 64.2261 147.539 64.3524 149.35 64.0127C151.944 63.5261 152.381 63.9327 151.911 66.3946C151.702 67.483 150.574 68.8547 148.975 69.963C147.295 71.1268 146.509 72.1072 146.75 72.736C146.955 73.2711 146.639 74.4481 146.047 75.3517C145.336 76.4368 145.093 77.7529 145.333 79.2279C145.763 81.8763 143.778 86.107 141.652 87.0739C140.891 87.42 140.191 88.2703 140.096 88.9634C140.002 89.6566 139.115 90.8688 138.126 91.6573C137.018 92.5405 136.52 93.4016 136.827 93.8996C137.5 94.9876 135.952 98.5859 134.812 98.5859C134.281 98.5859 133.902 99.2732 133.902 100.235C133.902 101.531 133.567 101.884 132.334 101.884C131.472 101.884 130.392 102.334 129.935 102.885C129.257 103.702 129.303 104.108 130.184 105.081C131.749 106.811 131.512 107.684 129.576 107.314C128.248 107.06 127.806 107.3 127.509 108.438C127.177 109.707 126.826 109.833 124.646 109.465C122.18 109.048 122.159 109.063 121.732 111.595C121.495 112.997 121.613 114.967 121.995 115.972C122.377 116.976 122.69 117.938 122.69 118.108C122.69 118.278 121.16 118.215 119.29 117.967C116.055 117.538 115.907 117.584 116.254 118.911C116.501 119.855 116.089 120.836 114.982 121.943C113.835 123.09 113.474 123.984 113.775 124.933C114.136 126.07 113.92 126.287 112.429 126.287C110.795 126.287 110.686 126.45 111.062 128.33L111.47 130.372L107.682 130.143L103.893 129.914L103.684 132.553C103.569 134.004 103.247 135.424 102.968 135.709C102.69 135.993 101.052 135.622 99.3301 134.884C95.4081 133.203 94.989 133.209 94.989 134.949C94.989 135.723 94.65 137.488 94.2356 138.871C93.5533 141.149 93.3102 141.352 91.659 141.021C90.1704 140.724 89.8547 140.881 89.9391 141.881C90.0219 142.862 89.5546 143.119 87.5866 143.175C86.2359 143.213 84.7209 143.585 84.2199 144.001C83.5624 144.546 82.3455 144.574 79.8442 144.099C76.2888 143.425 71.4924 143.821 70.8619 144.841C70.3808 145.619 68.7786 145.566 68.2772 144.754ZM64.6497 139.549C64.6497 139.225 64.2045 138.789 63.6603 138.58C62.655 138.194 62.3096 138.897 63.1107 139.698C63.741 140.328 64.6497 140.24 64.6497 139.549ZM75.4669 135.647C76.5511 133.55 75.9079 131.811 74.2795 132.436C73.1975 132.851 72.9122 134.601 73.6239 136.456C74.1679 137.874 74.3586 137.79 75.4669 135.647ZM59.0824 135.229C60.3435 134.292 60.3415 134.256 58.9452 132.84C57.216 131.087 56.0756 131.644 56.0756 134.241C56.0756 136.392 57.0749 136.721 59.0824 135.229ZM84.9433 132.882C84.9433 130.092 84.7522 129.585 83.7003 129.585C82.2786 129.585 82.1905 130.246 83.1516 133.707C84.1129 137.169 84.9433 136.787 84.9433 132.882ZM71.0803 130.071C71.5337 129.715 71.9047 128.86 71.9047 128.172C71.9047 127.193 71.5724 127.005 70.3718 127.306C69.3956 127.551 68.5254 127.313 67.9758 126.651C67.3179 125.858 66.8986 125.789 66.211 126.36C65.3003 127.115 64.9637 130.338 65.7168 131.092C66.2477 131.622 70.0184 130.905 71.0803 130.071ZM82.9264 128.125C84.3196 127.622 85.067 126.95 84.946 126.312C84.6933 124.978 79.5143 123.629 76.3567 124.075C74.8893 124.282 73.8834 124.151 73.8834 123.753C73.8834 123.383 74.5512 122.986 75.3674 122.87C77.3605 122.587 77.9532 119.032 76.0072 119.032C74.0944 119.032 70.3083 121.091 71.2036 121.644C71.62 121.902 72.1966 122.977 72.485 124.035C72.938 125.696 73.2855 125.93 75.0384 125.758C76.583 125.606 77.3565 125.955 78.2785 127.221C79.68 129.145 79.957 129.199 82.9264 128.125ZM44.1938 126.452C47.9042 124.405 48.4686 122.989 45.5734 122.989C44.2999 122.989 42.9566 123.678 41.6161 125.019C38.0036 128.631 39.1185 129.251 44.1938 126.452ZM102.66 125.278C102.201 124.081 100.928 124 100.928 125.168C100.928 126.368 102.492 127.862 102.796 126.951C102.925 126.563 102.864 125.81 102.66 125.278ZM60.7181 125.289C66.0265 122.599 64.5959 120.353 57.5737 120.353C53.774 120.353 52.1221 121.093 52.1221 122.793C52.1221 123.968 54.4116 123.876 55.4198 122.661C55.8714 122.117 56.5473 121.672 56.9219 121.672C57.2964 121.672 57.1117 122.215 56.5113 122.878C55.2147 124.311 55.1435 125.089 56.2112 126.157C57.2173 127.163 56.8968 127.225 60.7181 125.289ZM46.1863 119.693C46.1863 119.331 45.907 119.034 45.5656 119.034C45.2243 119.034 44.7616 119.331 44.5374 119.693C44.3132 120.056 44.5925 120.353 45.158 120.353C45.7236 120.353 46.1863 120.056 46.1863 119.693ZM40.8154 118.968C44.4036 117.717 44.3827 113.033 40.7933 114.006C38.7932 114.548 34.8021 118.222 35.3139 119.05C35.84 119.902 38.2402 119.866 40.8154 118.968ZM65.1923 117.22C64.9191 114.845 62.3761 114.287 61.8037 116.476C61.294 118.425 61.7567 119.034 63.7473 119.034C65.1623 119.034 65.3709 118.772 65.1923 117.22ZM59.5366 116.142C60.1047 115.574 60.3444 114.328 60.1711 112.845L59.8927 110.46H56.4181C54.2971 110.46 52.6542 110.808 52.2008 111.355C51.1949 112.567 52.0024 116.256 53.3523 116.615C55.6904 117.237 58.6692 117.01 59.5366 116.142ZM118.737 111.779C118.737 111.416 118.44 111.119 118.077 111.119C117.715 111.119 117.418 111.416 117.418 111.779C117.418 112.142 117.715 112.438 118.077 112.438C118.44 112.438 118.737 112.142 118.737 111.779ZM69.8032 110.022C71.0227 109.252 71.2845 108.578 71.1223 106.628C70.9615 104.694 70.62 104.151 69.4582 103.986C68.2697 103.817 67.6873 104.419 66.3417 107.209C65.4316 109.095 64.8529 110.907 65.0559 111.236C65.488 111.935 67.6467 111.383 69.8032 110.022ZM130.251 91.3782C130.794 90.5 129.426 89.8202 128.123 90.3203C127.173 90.685 127.154 90.8296 127.99 91.358C129.227 92.1406 129.777 92.1455 130.251 91.3782ZM138.698 87.6406C139.4 86.9391 138.415 85.3966 137.266 85.3966C136.652 85.3966 135.828 85.0747 135.434 84.6812C134.455 83.7021 131.599 84.1905 131.599 85.3371C131.599 86.5724 137.766 88.5733 138.698 87.6406ZM141.162 80.0993C141.162 79.3097 139.302 78.4627 138.759 79.0053C138.182 79.5829 139.161 80.7795 140.212 80.7795C140.734 80.7795 141.162 80.4734 141.162 80.0993ZM146.071 60.1869C146.636 59.3806 147.098 58.4702 147.098 58.1638C147.098 57.3991 144.354 58.2834 143.141 59.4389C142.261 60.2766 142.261 60.4508 143.141 61.0069C144.577 61.915 144.93 61.8162 146.071 60.1869ZM47.6667 140.718C45.1658 139.996 45.0661 139.768 46.8355 138.821C47.8379 138.285 48.539 138.375 49.8035 139.203C52.8385 141.192 51.8169 141.916 47.6667 140.718ZM78.5006 115.195C78.5006 114.083 78.7232 113.042 78.9952 112.882C79.8288 112.391 82.4634 113.661 82.8837 114.757C83.3892 116.074 83.1496 116.288 80.596 116.798C78.6063 117.196 78.5006 117.115 78.5006 115.195ZM98.0054 115.951C97.517 114.678 98.3113 114.048 101.729 112.995C103.642 112.405 104.403 112.423 105.191 113.078C106.722 114.348 106.426 115.047 103.914 116.097C100.878 117.365 98.5258 117.307 98.0054 115.951ZM85.2194 115.692C85.3781 115.216 85.8975 114.697 86.3736 114.538C86.8683 114.373 87.1156 114.62 86.9507 115.115C86.792 115.591 86.2726 116.111 85.7965 116.269C85.3018 116.434 85.0545 116.187 85.2194 115.692ZM91.0317 115.733C92.3104 114.907 93.0103 114.907 93.0103 115.733C93.0103 116.096 92.3425 116.388 91.5263 116.383C90.3263 116.375 90.2316 116.25 91.0317 115.733ZM7.41411 114.942C6.90838 114.436 6.88582 113.823 7.34162 112.971C8.12082 111.515 9.2563 111.977 9.2563 113.75C9.2563 115.321 8.36795 115.896 7.41411 114.942ZM87.081 112.978C87.081 112.553 86.5855 111.658 85.9799 110.988C84.9506 109.851 84.9535 109.717 86.0244 108.934C86.8718 108.315 87.2013 107.03 87.2904 103.999L87.4107 99.9011L90.81 98.911C95.2981 97.6038 95.6551 97.6464 95.6551 99.4891C95.6551 101.369 94.6739 102.282 92.0239 102.87C88.1645 103.725 88.1163 103.769 89.4346 105.226C90.3038 106.187 91.2953 106.51 92.926 106.366C95.1664 106.169 95.2044 106.208 95.2644 108.79C95.3225 111.291 95.2173 111.432 93.0169 111.801C91.7473 112.013 90.0602 112.539 89.2678 112.969C87.4642 113.947 87.081 113.949 87.081 112.978ZM100.931 105.506C100.931 104.223 101.27 103.857 102.454 103.857C103.292 103.857 104.553 104.296 105.257 104.834C106.366 105.679 106.405 105.899 105.548 106.472C105.004 106.836 103.743 107.139 102.745 107.144C101.248 107.153 100.931 106.867 100.931 105.506ZM5.03314 105.347C4.81114 105.125 5.23226 104.302 5.96897 103.518C7.307 102.094 7.30707 102.09 5.99661 100.424C5.27513 99.5072 4.85704 98.5845 5.0675 98.374C5.63454 97.807 9.26738 100.67 8.84592 101.352C8.64756 101.673 8.82205 102.341 9.23363 102.837C9.6564 103.347 9.72244 103.9 9.38543 104.108C7.95783 104.99 5.40341 105.718 5.03314 105.347ZM107.019 100.775C106.439 100.542 106.31 99.7244 106.605 98.1498L107.034 95.863L104.81 97.2191C101.586 99.1844 99.8907 98.9932 99.0456 96.5691C98.3799 94.6593 98.9315 92.8494 102.014 86.8315C102.24 86.3895 108.192 92.568 108.192 93.245C108.192 93.6401 108.894 93.9634 109.752 93.9634C111.552 93.9634 114.787 96.2827 114.787 97.5736C114.787 98.6236 110.557 101.24 108.978 101.166C108.364 101.138 107.483 100.962 107.019 100.775ZM4.78251 95.776C4.29455 95.1852 4.50532 94.4502 5.52622 93.1827C6.81049 91.5882 7.07636 91.5065 8.22456 92.3535C9.47157 93.2734 9.4657 93.3277 7.94471 94.9467C6.18207 96.823 5.74248 96.9383 4.78251 95.776ZM84.6802 95.5936C84.4108 94.8916 84.8054 93.3298 85.6596 91.7168C87.4729 88.2932 87.459 88.1568 85.2728 87.9052C83.0071 87.6445 82.5453 85.1418 84.3388 82.8423C85.5019 81.3511 85.6367 81.3293 87.5588 82.3233C88.6622 82.8939 89.7454 83.8307 89.9658 84.4053C90.1863 84.9799 90.7416 85.4009 91.1999 85.3409C91.6582 85.2809 93.0013 85.267 94.1845 85.31C96.3302 85.3879 96.3347 85.3953 95.8975 88.1296C95.4862 90.7017 95.5468 90.8481 96.879 90.4998C97.925 90.2262 98.2989 90.4264 98.2989 91.2598C98.2989 93.4246 96.5715 94.8247 93.2837 95.3246C91.5077 95.5946 88.9468 96.0301 87.5929 96.2924C85.568 96.6847 85.0513 96.5607 84.6802 95.5936ZM4.30764 90.6667C4.08187 90.3014 4.33817 89.8333 4.87727 89.6264C6.49178 89.0069 6.65845 87.4619 5.25212 86.1517C3.93282 84.9226 3.93335 84.9183 5.5409 83.865C6.96229 82.9337 7.08846 82.5302 6.61504 80.4313C6.20694 78.6218 6.30102 77.9675 7.00832 77.6961C7.51964 77.4999 7.93802 76.9259 7.93802 76.4206C7.93802 75.0518 8.84621 75.2996 10.9393 77.2394L12.8141 78.9769L10.3597 80.3723C7.94639 81.7442 7.90728 81.8307 8.0287 85.5283C8.15311 89.3171 7.30597 91.331 5.58778 91.331C5.10948 91.331 4.5334 91.0321 4.30764 90.6667ZM71.6739 90.3442C71.3992 89.6282 71.8311 89.1083 73.0782 88.654C74.0689 88.2931 75.6776 87.6804 76.6533 87.2925C78.9623 86.3743 80.515 87.2173 78.8105 88.4636C78.1421 88.9524 77.0479 89.3523 76.3789 89.3523C75.71 89.3523 74.467 89.8081 73.6167 90.3653C72.2226 91.2787 72.0317 91.2767 71.6739 90.3442ZM98.687 82.2001C98.4588 81.8308 98.5934 81.33 98.9863 81.0872C100 80.4605 100.655 81.319 99.808 82.1655C99.3344 82.6391 98.9654 82.6506 98.687 82.2001ZM89.7653 80.1826C89.0147 79.1284 88.4005 78.075 88.4005 77.8417C88.4005 77.2146 94.8415 70.8847 95.4795 70.8847C95.78 70.8847 96.3769 71.7009 96.806 72.6985C97.2351 73.6961 97.9375 74.9857 98.3668 75.5644C99.5624 77.1758 98.5719 79.8525 96.4883 80.6408C92.1854 82.2689 91.2029 82.202 89.7653 80.1826ZM118.111 79.999C116.453 78.2202 116.449 78.0123 118.022 76.0693C119.059 74.7893 119.91 74.5097 122.804 74.4977C124.74 74.4897 126.622 74.302 126.984 74.0806C127.347 73.8592 128.589 73.4754 129.744 73.2278C131.382 72.8766 132.145 73.0775 133.207 74.1395C133.956 74.8886 134.569 75.7836 134.569 76.1284C134.569 76.4731 132.762 76.9596 130.553 77.2095C127.884 77.5116 125.949 78.1522 124.782 79.1206C122.026 81.4082 119.708 81.7134 118.111 79.999ZM98.9297 71.8193C98.2172 70.1568 97.6341 68.5552 97.6341 68.2601C97.6341 67.6147 102.083 63.6296 102.804 63.6296C103.804 63.6296 107.527 68.0037 107.527 69.1782C107.527 70.6874 103.061 74.8419 101.439 74.8419C100.626 74.8419 99.7982 73.8453 98.9297 71.8193ZM7.40422 72.3099C6.84441 71.9458 6.69586 71.134 6.98106 69.9977C7.4899 67.9702 7.36837 68.0156 9.58515 69.0256C10.7584 69.5602 11.234 70.2331 11.1001 71.1692C10.8916 72.6273 8.85773 73.2551 7.40422 72.3099ZM10.3128 68.0816C9.36149 66.5993 9.03066 65.3494 9.17807 63.7945C9.29525 62.5582 11.6887 62.8018 12.1872 64.1008C12.5611 65.0753 12.733 65.0069 13.431 63.6061C14.144 62.1754 14.6731 61.9807 17.8494 61.9807C21.2377 61.9807 21.4699 62.0846 21.6557 63.6828C21.8448 65.3086 21.7185 65.3791 18.8346 65.259C15.7011 65.1285 14.5117 65.8512 15.7773 67.1167C17.2839 68.6233 16.557 69.5655 13.8882 69.5655C11.89 69.5655 11.0384 69.2121 10.3128 68.0816ZM106.561 64.0457C104.864 61.8215 104.851 59.6723 106.534 59.6723C106.998 59.6723 107.863 58.9303 108.458 58.0234C109.838 55.9169 111.522 55.9345 114.074 58.0821C117.193 60.7065 116.732 63.7331 112.975 65.3028C109.564 66.7278 108.438 66.5073 106.561 64.0457ZM20.1335 60.7875C18.8109 59.8248 17.193 59.3478 15.2501 59.3478C13.3644 59.3478 12.2347 59.0271 12.0317 58.4341C11.7855 57.715 12.2306 57.6164 14.1206 57.9709C16.0839 58.3392 16.6015 58.205 16.9558 57.2358C17.1942 56.5836 17.9171 55.3616 18.5623 54.5201C19.4614 53.3474 19.5892 52.6058 19.1095 51.3443C18.1554 48.8348 18.323 48.4652 20.4153 48.4652C21.4777 48.4652 22.7921 48.0201 23.3362 47.4759C24.8249 45.9872 28.3771 46.3923 28.3771 48.0509C28.3771 48.4709 28.964 49.9097 29.6814 51.2483C31.1941 54.0705 30.7501 54.6114 27.6509 53.7225C26.4227 53.3703 24.5997 53.0821 23.5997 53.0821C21.5532 53.0821 21.3499 54.0519 22.4244 58.6876C23.2036 62.0489 22.6117 62.5915 20.1335 60.7875ZM136.728 50.2743C136.378 49.8209 135.914 48.9528 135.698 48.3452C135.362 47.3998 134.967 47.3445 132.957 47.9615C131.174 48.5086 130.233 48.4822 129.056 47.8521C128.203 47.3955 126.521 47.1229 125.32 47.2465C124.082 47.3739 123.027 47.1454 122.884 46.719C122.545 45.7022 125.842 43.1842 127.514 43.1842C128.252 43.1842 129.406 42.6873 130.077 42.0799C131.151 41.1075 131.827 41.0665 135.735 41.7359C138.176 42.154 140.947 42.6775 141.893 42.8992C143.775 43.3402 144.762 42.102 143.786 40.5237C143.345 39.8093 142.893 39.7876 141.517 40.4147C140.119 41.0518 139.732 41.0237 139.44 40.2638C138.752 38.4711 140.415 36.5887 142.687 36.5887C143.864 36.5887 145.466 36.1404 146.248 35.5924C147.75 34.5404 148.676 35.1461 148.052 36.7724C147.82 37.3765 148.188 37.8665 149.039 38.0892C151.019 38.6068 150.709 39.3869 147.933 40.8758C145.755 42.0437 145.396 42.6026 144.801 45.7497C144.145 49.2204 144.059 49.3256 141.162 50.1917C137.505 51.2847 137.51 51.2846 136.728 50.2743ZM147.593 48.8616C146.199 47.8035 146.104 46.2612 147.369 45.2116C148.008 44.6815 148.434 44.657 148.728 45.1332C148.964 45.5149 149.893 45.6426 150.792 45.4169L152.428 45.0065L151.289 47.3931C150.065 49.9618 149.393 50.2285 147.593 48.8616ZM33.7083 47.2325C33.1983 46.2795 33.1641 45.433 33.6025 44.6139C34.1116 43.6626 33.8421 42.9566 32.3438 41.3162L30.4373 39.2288L33.8627 39.0971C35.7467 39.0247 38.1043 38.9943 39.1019 39.0295C41.3169 39.1077 41.4817 37.7951 39.4317 36.4042C37.6359 35.1857 38.376 34.1363 41.2454 33.8323C43.1324 33.6324 43.2166 33.7297 43.0613 35.9311C42.7527 40.3043 42.3212 41.2075 40.5406 41.2075C39.6226 41.2075 37.9762 41.6705 36.8819 42.2364C35.2174 43.0971 34.9532 43.5551 35.2647 45.0394C35.4694 46.0152 35.3726 47.2247 35.0495 47.7272C34.579 48.4587 34.3118 48.3602 33.7083 47.2325ZM149.736 42.8135C149.736 42.248 150.033 41.9687 150.396 42.1929C150.758 42.4171 151.055 42.8798 151.055 43.2211C151.055 43.5625 150.758 43.8418 150.396 43.8418C150.033 43.8418 149.736 43.3791 149.736 42.8135ZM27.7196 40.8771C27.7196 40.333 28.0164 39.8878 28.3792 39.8878C28.7419 39.8878 29.0387 40.333 29.0387 40.8771C29.0387 41.4212 28.7419 41.8664 28.3792 41.8664C28.0164 41.8664 27.7196 41.4212 27.7196 40.8771ZM48.0007 33.7381C47.0032 32.9214 46.187 31.6297 46.187 30.8677C46.187 29.6282 46.5148 29.5028 49.2998 29.6782C52.7941 29.8981 53.2718 30.5183 52.109 33.3255C51.15 35.6407 50.4148 35.7146 48.0007 33.7381ZM136.545 32.9622C137.441 31.8825 139.183 31.6182 139.183 32.5618C139.183 33.169 137.622 33.9515 136.41 33.9515C135.995 33.9515 136.048 33.5612 136.545 32.9622ZM143.8 32.7558C143.8 32.4609 144.691 31.3666 145.779 30.324C147.636 28.5448 147.757 28.514 147.757 29.8237C147.757 30.5912 147.291 31.6855 146.721 32.2555C145.627 33.3498 143.8 33.6627 143.8 32.7558ZM58.1842 27.9794C56.4547 27.2858 56.825 26.0369 58.7601 26.0369C59.7892 26.0369 60.0403 25.5733 60.0403 23.6736C60.0403 20.6261 61.4647 20.9608 62.2824 24.2004C63.3072 28.2611 61.9673 29.4966 58.1842 27.9794ZM67.0755 22.9591C66.2109 22.0944 66.6722 21.0782 68.2648 20.3398C69.5059 19.7644 70.1496 19.7837 71.0235 20.4228C72.0611 21.1815 71.9776 21.3525 70.0919 22.3276C67.7375 23.5451 67.6747 23.5582 67.0755 22.9591ZM77.5815 19.2396C75.9187 18.0237 76.4159 15.2173 78.3425 14.9436C79.6729 14.7547 79.8265 15.0107 79.8265 17.4169C79.8265 20.2867 79.4412 20.5995 77.5815 19.2396ZM85.7625 13.2146C85.7625 12.0325 86.8522 11.3072 87.7732 11.8764C88.246 12.1686 88.2204 12.5983 87.6925 13.2344C86.6959 14.4352 85.7625 14.4256 85.7625 13.2146ZM93.1271 12.8049C90.798 11.8715 91.7671 10.613 94.875 10.535C97.6715 10.4649 98.3455 11.2113 96.8427 12.7141C95.9219 13.6349 95.2394 13.6516 93.1271 12.8049Z" fill="#65581D"/>
<path d="M133.012 22.2037L141.946 20.9274L140.67 23.9906L150.625 26.7984L148.583 34.2012L152.667 33.9459L151.901 39.0511L155.22 36.4985L151.901 43.9013L155.22 46.4538L152.157 48.2407L155.22 51.0485L152.157 52.5801L154.964 54.7498L152.922 56.5366L155.347 60.2379L151.008 61.2589L151.646 62.9181L155.092 64.7049L151.135 65.9812L154.837 69.9377L149.476 69.6825L152.156 73.0009L150.114 72.7456L152.412 74.9153L147.945 74.5324L150.114 76.9574L145.775 76.4469L147.179 79.51L146.924 80.9139L147.689 82.1902L145.52 82.8284V84.7428L144.499 85.6363L140.414 87.4231L142.457 90.3586L139.649 90.9968L138.883 92.6559L136.33 91.8901L139.011 97.2506H136.458L138.5 99.548L134.926 98.7822L134.671 102.483L130.842 101.973L130.076 103.887L133.778 108.61L128.545 107.078L128.034 108.61L130.204 111.035L123.823 108.865L122.802 112.439L122.546 116.523L125.482 118.82L116.675 117.033L118.462 120.99L116.165 121.245L116.803 123.287L113.485 122.394L115.527 127.116L111.443 125.967L111.826 131.072L108.38 129.413V132.732L105.316 128.52L104.04 136.56L95.6163 132.093L95.1058 139.113L94.5953 141.666L89.1072 138.475L89.4901 143.963L86.2993 140.006L85.9164 143.708L84.1296 140.262L83.8743 144.473L77.4928 139.113L73.1534 138.858L69.7074 144.984L65.4956 137.581L60.9009 135.922L54.647 144.856L53.8812 134.39L48.9037 134.901L45.9682 137.198L43.4156 135.284L37.7999 137.326L36.1407 135.284L30.6526 138.985L27.8447 136.05L25.1645 138.092L20.8251 132.093L17.1238 128.775L14.8265 127.626L13.0396 125.073L9.84887 124.052L10.487 121.755L7.93443 119.33L8.31731 116.267L5.3818 114.991L8.44494 111.162L3.33977 109.758L5.25424 103.887L3.7227 101.717L5.63717 100.569L1.55299 98.3988L4.87137 95.7186L0.659561 94.4423L5.89242 91.7621L1.55299 90.7411L5.50948 87.4227L1.4253 84.1043L6.9134 80.7859L0.659561 76.5741L8.44487 77.2122L4.10544 74.1491L7.93431 73.0004L3.7225 71.2136L6.27509 70.4478L3.7225 67.257H8.44481L6.14747 63.4282L9.21061 63.0453L7.67907 60.1097L11.8909 61.386L9.08305 56.0256L16.2306 56.4084L14.9543 53.6006L18.2727 53.9835L16.3582 46.1982L21.9739 47.0916L18.9108 41.9865L27.3345 45.4325L25.4201 37.3919L27.9727 37.7748C27.9727 37.7748 36.7789 38.5406 36.1412 38.4129C35.5087 38.2771 35.7639 28.4498 35.7639 28.4498L39.5928 31.5129L40.3586 27.9393C40.3586 27.9393 42.6559 29.5985 43.1664 29.8538C43.6769 30.109 43.8046 23.7276 43.8046 23.7276L50.1861 29.2157L50.569 21.8129L52.8663 22.7063L54.5255 22.0682L54.7807 19.7708L59.2478 24.7484V19.005L61.928 17.984L65.374 19.5155L66.2674 12.7512L70.2239 18.6222L70.7344 14.1551C70.7344 14.1551 72.0107 13.8998 72.266 13.3893C72.5212 12.8788 72.7765 11.2196 72.7765 11.2196L75.712 13.6446L76.9883 9.04987L79.4133 10.3262V8.66701L84.7738 11.4748L86.05 5.60387L88.475 7.51834L89.8789 4.07233L90.7723 7.9012L93.1973 5.34862L95.7499 7.9012L99.7064 4.19995L99.9616 5.9868L103.408 4.58288L104.939 8.28414L108.513 4.07233L108.385 8.28414L110.683 5.47631L110.938 8.53945L113.49 5.47631L113.618 11.4749L117.447 7.26309L119.999 12.3683L120.127 15.8143L127.147 13.0064L127.53 17.0906L133.012 22.2037Z" fill="url(#paint2_radial_1_50)"/>
<path d="M89.9103 10.5732C90.7891 12.8511 88.1602 14.6499 86.4889 13.0671C84.6421 14.9154 88.3135 16.8485 89.6012 17.6839C90.7432 15.5603 93.8284 14.5972 95.8463 15.3549C97.1712 14.533 98.7574 12.7741 98.5051 11.6244C96.7737 13.069 95.494 10.5431 93.9295 11.4183C92.6194 10.3491 91.3467 12.4127 89.9103 10.5732ZM110.48 11.1503C110.472 11.1562 110.468 11.165 110.46 11.1709H110.501C110.491 11.1652 110.491 11.1561 110.48 11.1503ZM80.3469 13.9328C79.1593 13.9715 79.3697 16.6581 77.5026 15.7053C77.0575 17.726 74.6638 16.7222 74.0812 18.4054C73.8905 19.9549 73.3086 23.9164 70.6598 22.0329C69.632 21.3249 68.7222 19.0361 68.5162 21.5382C67.8641 23.581 65.704 23.4472 64.3322 22.3833C62.3906 21.8843 60.2519 23.131 61.4261 25.1658C62.5152 27.2539 60.0769 30.0024 58.2932 27.907C57.6027 26.9883 56.9169 26.4487 57.2627 28.0306C56.3472 29.569 54.5954 28.6054 53.7382 27.5772C53.77 29.6763 52.5995 33.7691 49.7397 32.1735C48.4592 31.9052 46.3158 29.0084 46.8954 31.8231C46.8429 34.1606 44.0596 34.4944 42.8144 35.3269C41.5696 36.5288 39.7073 34.9137 38.8365 34.42C38.8609 36.4382 38.9836 37.8727 39.9907 39.2842C39.2866 42.8382 34.3649 41.5281 31.8704 41.098C30.2265 40.7089 33.9176 42.3877 33.4574 43.7156C33.5944 45.4812 31.4037 45.22 32.0559 47.0958C30.8269 49.4825 34.7713 50.8067 36.5697 51.6096C35.8158 48.4606 35.9985 42.3673 40.6094 42.6437C42.6632 43.3913 43.3368 42.5137 42.7942 40.7063C42.5794 38.8769 44.1722 38.8239 45.2056 38.4184C46.7371 36.323 49.4306 37.3217 51.4094 36.8108C53.6695 35.1771 53.0391 31.4271 56.2118 30.7512C58.583 29.3514 62.1204 30.397 64.1468 29.3702C64.3049 27.3081 66.872 25.3797 68.4133 26.7939C68.803 23.8617 72.134 22.9576 74.3698 24.5473C75.9673 24.9992 74.215 21.1563 76.3691 20.8786C78.0864 19.8732 81.7277 23.0983 80.9653 19.745C80.8542 17.8855 81.088 15.6534 80.6149 13.9533C80.5224 13.9304 80.426 13.9302 80.3469 13.9328ZM29.067 41.6958C28.5399 41.7366 28.1079 42.1083 28.9845 42.9119C29.583 45.2279 30.3605 44.0089 29.7059 42.5409C30.2161 41.945 29.594 41.6549 29.067 41.6958ZM6.37455 97.4069L4.66382 97.9634C4.33089 100.156 6.49505 98.8773 6.37455 97.4069ZM7.48754 98.2107C7.16818 98.1509 6.94037 98.9715 6.80741 99.2413C6.26112 101.385 8.35161 99.2563 7.48754 98.2107ZM3.8806 100.231C1.48196 100.156 5.72925 103.328 5.57069 100.56L5.34397 100.478C4.69836 100.307 4.2233 100.241 3.8806 100.231ZM10.8059 101.673C10.8182 101.57 10.4613 102.282 10.27 102.931C10.6574 102.092 10.7985 101.736 10.8059 101.673ZM10.9707 102.024C10.9213 102.01 10.642 102.446 10.4761 103.034C10.9157 102.315 11.0092 102.035 10.9707 102.024ZM11.5066 102.271C11.3677 102.327 10.7784 103 10.9089 103.322C12.344 104.271 11.7388 103.428 11.6097 103.302C11.7383 103.002 12.0657 102.082 11.012 103.054C11.518 102.418 11.59 102.238 11.5066 102.271ZM8.33255 102.807C6.48232 103.396 6.74832 103.14 8.33255 102.807V102.807ZM5.38516 102.931C4.31043 103.492 4.09898 105.857 6.10658 105.136C6.35584 106.391 8.00746 105.015 6.62185 105.074C8.86135 104.781 6.48154 103.092 5.38516 102.931ZM11.8982 104.27C11.7028 104.282 11.4313 104.295 11.0738 104.332C12.3062 104.287 12.4844 104.235 11.8982 104.27ZM11.4242 105.054C11.2561 105.057 11.1414 105.068 11.0944 105.074C11.1664 105.087 11.5879 105.096 12.4135 105.054C11.9885 105.036 11.6482 105.05 11.4242 105.054ZM5.77677 105.651C5.70205 105.641 5.87368 106.305 5.96227 106.723C6.05171 106.685 6.14241 106.654 6.25082 106.599C5.95216 105.907 5.8216 105.658 5.77677 105.651ZM5.96227 106.723C5.92289 106.74 5.87452 106.771 5.8386 106.785C6.03996 107.19 6.03087 107.047 5.96227 106.723ZM5.8386 106.785C5.75512 106.617 5.59097 106.266 5.42639 105.878C5.51644 106.375 4.78891 106.129 5.42639 106.62C5.15288 106.405 4.82473 107.167 5.8386 106.785ZM11.115 105.96C10.7356 106.225 11.3744 108.037 11.3211 106.888C11.6879 107.261 12.1056 107.645 11.8364 106.805C11.797 106.975 12.9094 106.033 11.115 105.96ZM7.30201 107.156C7.28185 107.165 7.46345 107.566 7.87911 108.351C7.54411 107.53 7.32217 107.147 7.30201 107.156ZM5.48825 107.218C4.32857 107.225 4.63717 107.473 6.08597 107.218C5.85991 107.206 5.65392 107.216 5.48825 107.218ZM6.74548 107.362C6.71507 107.341 6.86071 107.736 7.26075 108.619C6.98235 107.82 6.77589 107.383 6.74548 107.362ZM6.12716 107.609C4.65933 107.765 5.20451 108.114 5.42639 108.083C5.20644 108.659 5.1117 109.206 5.55005 108.763C5.78521 108.774 6.64873 109.38 6.14777 107.609L6.12716 107.609ZM9.28059 111.773C7.18534 111.867 10.3754 112.827 9.28059 111.773V111.773ZM9.38364 114.761C8.43871 115.442 7.72732 115.874 9.15692 116.513C10.2954 118.099 9.55584 116.989 10.2081 115.874C10.4727 115.617 9.43535 114.688 9.38364 114.761Z" fill="url(#paint3_linear_1_50)"/>
<path opacity="0.20498" d="M132.352 22.2037L141.287 20.9274L140.01 23.9906L149.965 26.7984L147.923 34.2012L152.008 33.9459L151.242 39.0511L154.56 36.4985L151.242 43.9013L154.56 46.4538L151.497 48.2407L154.56 51.0485L151.497 52.5801L154.305 54.7498L152.263 56.5366L154.688 60.2379L150.348 61.2589L150.986 62.9181L154.432 64.7049L150.476 65.9812L154.177 69.9377L148.817 69.6825L151.497 73.0009L149.455 72.7456L151.752 74.9153L147.285 74.5324L149.455 76.9574L145.115 76.4469L146.519 79.51L146.264 80.9139L147.03 82.1902L144.86 82.8284V84.7428L143.839 85.6363L139.755 87.4231L141.797 90.3586L138.989 90.9968L138.223 92.6559L135.671 91.8901L138.351 97.2506H135.798L137.84 99.548L134.267 98.7822L134.012 102.483L130.183 101.973L129.417 103.887L133.118 108.61L127.885 107.078L127.375 108.61L129.545 111.035L123.163 108.865L122.142 112.439L121.887 116.523L124.822 118.82L116.016 117.033L117.803 120.99L115.505 121.245L116.144 123.287L112.825 122.394L114.867 127.116L110.783 125.967L111.166 131.072L107.72 129.413V132.732L104.657 128.52L103.381 136.56L94.9568 132.093L94.4463 139.113L93.9357 141.666L88.4476 138.475L88.8305 143.963L85.6398 140.006L85.2569 143.708L83.47 140.262L83.2148 144.473L76.8333 139.113L72.4938 138.858L69.0478 144.984L64.836 137.581L60.2413 135.922L53.9875 144.856L53.2217 134.39L48.2441 134.901L45.3086 137.198L42.756 135.284L37.1403 137.326L35.4812 135.284L29.993 138.985L27.1852 136.05L24.5049 138.092L20.1655 132.093L16.4643 128.775L14.1669 127.626L12.3801 125.073L9.1893 124.052L9.82745 121.755L7.27487 119.33L7.65775 116.267L4.72223 114.991L7.78538 111.162L2.68021 109.758L4.59468 103.887L3.06314 101.717L4.97761 100.569L0.893424 98.3988L4.21181 95.7186L0 94.4423L5.23286 91.7621L0.893424 90.7411L4.84992 87.4227L0.765736 84.1043L6.25384 80.7859L0 76.5741L7.78531 77.2122L3.44588 74.1491L7.27475 73.0004L3.06294 71.2136L5.61553 70.4478L3.06294 67.257H7.78524L5.4879 63.4282L8.55105 63.0453L7.01951 60.1097L11.2313 61.386L8.42349 56.0256L15.571 56.4084L14.2947 53.6006L17.6131 53.9835L15.6986 46.1982L21.3144 47.0916L18.2512 41.9865L26.675 45.4325L24.7605 37.3919L27.3131 37.7748C27.3131 37.7748 36.1194 38.5406 35.4816 38.4129C34.8491 38.2771 35.1043 28.4498 35.1043 28.4498L38.9332 31.5129L39.699 27.9393C39.699 27.9393 41.9963 29.5985 42.5068 29.8538C43.0174 30.109 43.145 23.7276 43.145 23.7276L49.5265 29.2157L49.9094 21.8129L52.2067 22.7063L53.8659 22.0682L54.1212 19.7708L58.5882 24.7484V19.005L61.2684 17.984L64.7144 19.5155L65.6079 12.7512L69.5644 18.6222L70.0749 14.1551C70.0749 14.1551 71.3512 13.8998 71.6064 13.3893C71.8617 12.8788 72.1169 11.2196 72.1169 11.2196L75.0525 13.6446L76.3287 9.04987L78.7537 10.3262V8.66701L84.1142 11.4748L85.3905 5.60387L87.8154 7.51834L89.2194 4.07233L90.1128 7.9012L92.5377 5.34862L95.0903 7.9012L99.0468 4.19995L99.3021 5.9868L102.748 4.58288L104.28 8.28414L107.853 4.07233L107.726 8.28414L110.023 5.47631L110.278 8.53945L112.831 5.47631L112.958 11.4749L116.787 7.26309L119.34 12.3683L119.468 15.8143L126.487 13.0064L126.87 17.0906L132.352 22.2037Z" fill="black"/>
<path opacity="0.35452" d="M25.3405 123.059L30.0334 118.005L32.1994 119.268L39.5995 111.327L39.9605 113.493L47.722 106.814L52.054 103.565L54.0394 103.204L59.9958 98.3306L64.5081 97.6086L70.645 93.8182L70.284 92.0132L73.3524 88.5838L75.8793 89.3058L78.7673 87.5008L84.5432 80.4615L95.0122 71.2562L100.608 66.5633L101.691 63.6753L108.549 58.2604L110.354 55.192L116.491 52.4846L118.837 48.3332L125.516 45.4452L125.336 42.9183L131.472 41.1133L131.111 37.3228L136.165 34.7959L134.36 33.5324L139.414 29.742L137.248 28.8395L137.068 26.6736L134.721 25.5906L121.725 20.3562L117.394 10.0679L112.881 17.4681L110.535 13.4971L107.827 17.2875L100.607 8.62372L97.7192 16.7461H94.8313L94.1093 18.7315L91.2214 17.2875L88.6945 20.356L80.7528 14.2191L80.9333 24.6881L76.6014 22.1612L74.7964 23.9662L75.1574 29.3811L71.006 25.5907L69.0206 25.7712L66.8546 32.4498L56.9271 32.0888L51.1512 39.4889L44.6534 39.8499L44.4729 44.9037L38.336 44.7232L37.0725 46.5282V53.9284L33.6431 53.0259L27.3257 48.1525L32.1991 57.3578L22.633 56.8163L24.2575 67.8268L16.6767 73.6027L17.7596 77.3931L8.91509 76.8516L13.7885 82.2665L8.37359 84.252L8.01259 87.5009L11.6225 92.0133L11.442 96.7061L5.84666 100.136L6.74913 102.301L11.442 103.384L11.9835 107.716L5.48563 109.341L10.1785 111.146L8.55405 113.131L10.1785 114.936H12.525L9.99806 116.922L10.9005 119.088L12.525 120.171L14.8714 122.337L16.6764 124.503H20.6473L22.9938 121.615L23.5353 124.322L25.3405 123.059Z" fill="black"/>
<path d="M26.6596 123.059L31.3525 118.005L33.5185 119.268L40.9186 111.327L41.2796 113.493L49.0411 106.814L53.3731 103.565L55.3585 103.204L61.3149 98.3306L65.8272 97.6086L71.9641 93.8182L71.6031 92.0132L74.6715 88.5838L77.1984 89.3058L80.0864 87.5008L85.8623 80.4615L96.3313 71.2562L101.927 66.5633L103.01 63.6753L109.868 58.2604L111.673 55.192L117.81 52.4846L120.157 48.3332L126.835 45.4452L126.655 42.9183L132.791 41.1133L132.43 37.3228L137.484 34.7959L135.679 33.5324L140.733 29.742L138.567 28.8395L138.387 26.6736L136.04 25.5906L123.045 20.3562L118.713 10.0679L114.2 17.4681L111.854 13.4971L109.146 17.2875L101.926 8.62372L99.0383 16.7461H96.1504L95.4284 18.7315L92.5405 17.2875L90.0136 20.356L82.0719 14.2191L82.2524 24.6881L77.9205 22.1612L76.1155 23.9662L76.4765 29.3811L72.3251 25.5907L70.3397 25.7712L68.1737 32.4498L58.2462 32.0888L52.4703 39.4889L45.9725 39.8499L45.792 44.9037L39.6551 44.7232L38.3916 46.5282V53.9284L34.9622 53.0259L28.6448 48.1525L33.5182 57.3578L23.9521 56.8163L25.5766 67.8268L17.9958 73.6027L19.0787 77.3931L10.2342 76.8516L15.1076 82.2665L9.69269 84.252L9.3317 87.5009L12.9416 92.0133L12.7611 96.7061L7.16577 100.136L8.06824 102.301L12.7611 103.384L13.3026 107.716L6.80473 109.341L11.4976 111.146L9.87316 113.131L11.4976 114.936H13.8441L11.3172 116.922L12.2196 119.088L13.8441 120.171L16.1905 122.337L17.9955 124.503H21.9664L24.3129 121.615L24.8544 124.322L26.6596 123.059Z" fill="url(#paint4_linear_1_50)"/>
<g filter="url(#filter0_f_1_50)">
<path d="M35.6163 114.214C38.2962 113.725 40.061 111.024 41.9978 109.109C44.5772 106.557 46.0706 102.968 48.8901 100.685C51.1968 98.8167 54.1312 97.8936 56.8034 96.6008C60.3341 94.8924 64.1514 93.7525 67.5243 91.7508C72.7489 88.6505 77.4538 84.72 82.074 80.7746C87.1077 76.4762 91.9355 71.9063 96.3684 66.9907C98.0326 65.1452 99.1207 62.7874 100.963 61.1198C103.203 59.0921 106.202 58.0804 108.621 56.2698C112.338 53.4879 115.643 50.1941 119.087 47.0803C121.588 44.8192 124.191 42.655 126.49 40.1881C128.653 37.8655 130.754 35.4476 132.47 32.7774C133.198 31.6457 134.023 30.489 134.275 29.1675C134.536 27.8031 134.389 26.3215 133.914 25.0161C133.413 23.6356 132.506 22.3579 131.388 21.4062C129.912 20.1507 128.008 19.4375 126.153 18.8792C122.723 17.8471 119.081 17.6126 115.504 17.4353C112.137 17.2684 108.69 17.0762 105.397 17.7963C101.576 18.6315 97.9449 20.3387 94.5667 22.3087C92.7889 23.3454 91.4513 25.0292 89.6933 26.0991C86.014 28.3384 81.8572 29.6772 77.9613 31.514C76.3305 32.2829 74.4267 32.6529 73.0879 33.8605C72.4059 34.4756 72.3304 35.597 71.6439 36.207C66.9351 40.3909 59.8228 40.7858 54.497 44.1486C51.39 46.1104 48.3896 48.3849 46.0139 51.188C43.8521 53.7384 42.2497 56.7672 40.96 59.8518C40.0705 61.9793 40.354 64.5604 39.155 66.5304C36.653 70.6409 31.6381 72.6241 28.5059 76.2772C25.823 79.4061 23.3577 82.8155 21.6473 86.5655C20.3268 89.4604 19.2553 92.5917 19.1204 95.7708C19.0088 98.3995 19.6485 101.063 20.5575 103.532C21.3491 105.682 22.3321 107.904 23.987 109.489C25.311 110.756 27.1764 111.315 28.8672 112.022C31.0498 112.936 33.2908 114.639 35.6183 114.214L35.6163 114.214Z" fill="#C5931D" fill-opacity="0.98824"/>
</g>
<path d="M101.815 7.97522L101.609 8.5111L98.8059 16.4257H96.1472H95.9205L95.838 16.6318L95.2403 18.2807L92.6846 17.0028L92.4578 16.8791L92.2929 17.0852L89.9639 19.9089L82.2763 13.9524L81.7404 13.5402V14.2203L81.9053 24.1135L78.0923 21.8875L77.8655 21.7433L77.68 21.9288L75.8869 23.7425L75.7838 23.8456V23.9898L76.093 28.6067L72.5479 25.3502L72.4292 25.2499L72.2849 25.2705L70.2857 25.456L70.0796 25.4766L70.0178 25.6827L67.9361 32.1339L58.2473 31.7633H58.0824L57.9793 31.8869L52.2702 39.1624L45.9426 39.5334H45.6334V39.8426L45.4685 44.5831L39.6563 44.3976H39.4708L39.3677 44.5418L38.1105 46.335L38.0487 46.4381V46.5411V53.5073L35.0807 52.7034H35.0395L28.8356 47.9011L28.341 48.3133L32.9166 56.9903L23.9507 56.4957L23.5591 56.4751L23.6003 56.8667L25.208 67.6872L17.788 73.3553L17.6025 73.4789L17.6643 73.7057L18.6124 77.0446L10.2428 76.5302L9.43812 76.4906L9.974 77.0883L14.529 82.1379L9.56178 83.9517L9.37629 84.0135L9.35571 84.2196L8.98472 87.4761L8.96413 87.5998L9.04657 87.7235L12.5916 92.1136L12.4061 96.5449L6.96487 99.8633L6.73815 100.008L6.84121 100.275L7.74809 102.44L7.8099 102.584L7.97479 102.625L12.4267 103.656L12.9214 107.469L6.69691 109.035L5.687 109.282L6.67632 109.653L10.9428 111.302L9.60315 112.931L9.41765 113.157L9.60315 113.363L11.2314 115.157L11.3345 115.28H11.4788H12.8597L11.0872 116.661L10.9017 116.826L11.0047 117.053L11.8911 119.217L11.9323 119.32L12.0147 119.361L13.6017 120.412L13.6429 120.454L15.9101 122.556L17.7239 124.72L17.827 124.844H17.9712H21.9491H22.114L22.1964 124.72L24.1132 122.37L24.5048 124.39L24.6079 124.885L25.0201 124.596L26.8338 123.339L26.8544 123.319L26.875 123.298L31.3888 118.434L33.3262 119.567L33.553 119.691L33.7385 119.506L40.6842 112.045L40.9315 113.549L41.0345 114.126L41.4674 113.755L49.2171 107.077H49.2376L53.4835 103.903L55.4003 103.532L55.4827 103.512L55.5445 103.471L61.4186 98.6683L65.8705 97.9469L65.9323 97.9263L65.9736 97.9057L72.1156 94.1133L72.3217 93.9897L72.2599 93.763L71.9507 92.1141L74.7744 88.9606L77.0828 89.6408L77.2271 89.6614L77.3508 89.5996L80.2363 87.7858L80.2981 87.7652L80.3187 87.724L86.0691 80.7163L96.519 71.5235L96.5396 71.5029L102.125 66.8242L102.187 66.7624L102.208 66.6799L103.259 63.8769L110.06 58.518L110.101 58.4974L110.142 58.4356L111.874 55.4676L117.955 52.7852L118.037 52.744L118.099 52.641L120.387 48.6012L126.962 45.7569L127.189 45.6539L127.168 45.4272L127.003 43.16L132.877 41.4286L133.145 41.3668L133.124 41.0783L132.774 37.5126L137.638 35.1012L138.133 34.8538L137.679 34.5241L136.257 33.5347L140.936 30.0102L141.39 29.6599L140.854 29.4331L138.875 28.6293L138.71 26.6506V26.4651L138.525 26.3827L136.175 25.2903L123.293 20.117L119.027 9.93487L118.759 9.35777L118.429 9.89365L114.204 16.8189L112.143 13.3357L111.875 12.9029L111.586 13.3151L109.134 16.7571L102.188 8.4099L101.817 7.97707L101.815 7.97522ZM102.042 9.29432L108.885 17.4978L109.173 17.8276L109.421 17.4772L111.832 14.097L113.914 17.6421L114.202 18.1161L114.491 17.6421L118.654 10.7992L122.735 20.4867L122.797 20.6104L122.921 20.6722L135.906 25.8867L135.926 25.9073L138.07 26.8966L138.235 28.8753L138.255 29.0608L138.441 29.1432L140.069 29.8234L135.473 33.2654L135.122 33.554L135.493 33.8013L136.833 34.7494L132.278 37.0372L132.072 37.1403L132.093 37.367L132.443 40.8915L126.569 42.6022L126.301 42.6847L126.322 42.9526L126.487 45.2405L120.035 48.0435L119.932 48.0848L119.87 48.1672L117.583 52.2275L111.544 54.8863L111.441 54.9275L111.399 55.0306L109.627 58.0398L102.805 63.4192L102.743 63.481L102.701 63.5635L101.65 66.3665L96.1266 71.0039H96.106L85.6357 80.2172L85.6151 80.2378V80.2583L79.844 87.266L79.8235 87.2866L77.144 88.9561L74.7532 88.2759L74.5677 88.2141L74.4234 88.3584L71.3524 91.8005L71.2494 91.9241L71.2906 92.089L71.5997 93.6554L65.7257 97.283L61.2737 98.0044L61.1707 98.025L61.1089 98.0868L55.2142 102.91L53.318 103.239L53.2355 103.26L53.1737 103.301L48.8454 106.558H48.8248L41.5078 112.865L41.2399 111.278L41.1368 110.618L40.6834 111.113L33.4488 118.863L31.5114 117.729L31.2846 117.585L31.1197 117.791L26.4617 122.799L26.4205 122.84L25.0808 123.768L24.6274 121.562L24.5037 120.862L24.0503 121.418L21.8243 124.18H18.1555L16.4448 122.119H16.4242V122.098L14.0746 119.934L14.054 119.914L14.0334 119.893L12.4876 118.883L11.725 117.028L14.054 115.194L14.796 114.617H13.8479H11.6631L10.3028 113.133L11.7456 111.36L12.0341 111.01L11.6219 110.845L7.91197 109.402L13.3738 108.042L13.6624 107.96L13.6211 107.671L13.0853 103.343L13.0647 103.116L12.8377 103.075L8.30333 102.024L7.58193 100.272L12.9408 96.9945L13.085 96.8915V96.7266L13.2705 92.0273V91.9037L13.2087 91.8006L9.68424 87.4311L9.9934 84.5043L15.2286 82.5876L15.682 82.4021L15.3522 82.0517L11.0239 77.2287L19.0625 77.7234L19.516 77.744L19.3923 77.3111L18.3824 73.7248L25.7819 68.0981L25.9261 67.9744L25.9056 67.7889L24.3391 57.1742L33.5108 57.6894L34.0879 57.7307L33.82 57.2154L29.6566 49.3417L34.7681 53.299L34.8093 53.3402H34.8711L38.3131 54.2471L38.7254 54.3502V53.9379V46.642L39.8177 45.055L45.7742 45.2405H46.104L46.1246 44.9107L46.2895 40.1702L52.4933 39.8198H52.6376L52.7407 39.6962L58.4087 32.4207L68.1575 32.7917H68.4048L68.4872 32.565L70.5895 26.0725L72.1972 25.9488L76.2575 29.6382L76.8552 30.1741L76.814 29.3702L76.443 24.0939L77.9888 22.5687L82.0905 24.9801L82.5851 25.2686V24.6915L82.4202 14.9012L89.8197 20.6104L90.067 20.8165L90.2731 20.5692L92.6228 17.7042L95.2815 19.0233L95.6113 19.1882L95.735 18.8378L96.3739 17.0859H99.0327H99.28L99.3418 16.8592L102.042 9.29432Z" fill="#767B1A" fill-opacity="0.99216"/>
<path d="M36.2758 112.895C38.8603 112.034 40.7205 109.705 42.6574 107.79C45.2367 105.238 46.7301 101.649 49.5496 99.3659C51.8563 97.4976 54.7907 96.5745 57.4629 95.2817C60.9936 93.5733 64.8109 92.4334 68.1839 90.4317C73.4084 87.3314 78.1134 83.401 82.7335 79.4555C87.7672 75.1571 92.5951 70.5873 97.0279 65.6716C98.6921 63.8262 99.7802 61.4683 101.623 59.8007C103.863 57.773 106.861 56.7613 109.281 54.9507C112.997 52.1688 116.303 48.875 119.746 45.7613C122.247 43.5001 124.851 41.3359 127.149 38.869C129.313 36.5464 131.413 34.1285 133.13 31.4583C133.857 30.3266 134.683 29.1699 134.935 27.8484C135.195 26.484 135.049 25.0024 134.574 23.697C134.072 22.3165 133.166 21.0388 132.047 20.0871C130.571 18.8316 128.668 18.1184 126.813 17.5601C123.382 16.528 119.741 16.2936 116.164 16.1162C112.796 15.9493 109.349 15.7571 106.056 16.4772C102.236 17.3124 98.6045 19.0196 95.2262 20.9896C93.4484 22.0263 92.1108 23.7101 90.3528 24.78C86.6735 27.0193 82.5168 28.3581 78.6208 30.1949C76.99 30.9638 75.0862 31.3338 73.7474 32.5414C73.0654 33.1565 72.99 34.2779 72.3034 34.8879C67.5947 39.0718 60.4824 39.4667 55.1565 42.8295C52.0495 44.7913 49.0492 47.0658 46.6734 49.8689C44.5116 52.4193 42.9092 55.4481 41.6195 58.5327C40.73 60.6602 41.0136 63.2413 39.8145 65.2113C37.3125 69.3218 32.2977 71.3051 29.1655 74.9581C26.4826 78.087 24.0172 81.4964 22.3068 85.2464C20.9863 88.1414 20.3144 91.315 19.7799 94.4517C19.3443 97.0083 18.6564 99.6858 19.2384 102.213C19.7526 104.446 21.0968 106.502 22.6679 108.17C24.5445 110.161 26.9177 111.856 29.5265 112.682C31.6729 113.362 34.1417 113.607 36.2777 112.895L36.2758 112.895Z" fill="url(#paint5_linear_1_50)"/>
<g opacity="0.63545" filter="url(#filter1_f_1_50)">
<path d="M123.576 21.7407C122.569 21.7527 121.919 21.8398 121.508 21.9258C119.86 22.271 117.608 23.1886 115.129 24.5733C116.269 23.9369 115.069 25.3317 110.78 27.8318C105.569 30.869 101.169 32.1448 98.5442 33.3304C97.8854 33.6279 97.9112 33.6379 97.481 33.8488C97.0005 34.4036 96.4365 34.981 95.7219 35.5891C86.7317 43.2399 78.8859 43.3661 77.9382 43.939C75.6743 45.3081 73.9278 46.6862 72.951 47.7899C72.1584 48.6856 71.2026 50.2461 70.3029 52.3073C71.3122 49.9952 71.9805 53.3057 67.732 59.9908C62.3267 68.4959 56.4766 70.4048 56.5013 70.3769C54.4546 72.6631 52.9107 74.8352 52.036 76.6717C51.6141 77.5577 51.1118 79.3364 50.6636 81.8556C51.1886 80.7596 52.7111 78.2034 57.5259 74.4684C62.2673 70.7903 66.1437 69.8767 67.4613 69.266C72.0507 67.1391 75.2342 66.1608 76.5468 65.4151C80.233 63.3199 84.1093 60.2779 88.3768 56.7879C92.7606 53.2026 96.8814 49.4534 100.574 45.5314C100.323 45.7979 101.426 43.1707 105.793 39.3848C110.578 35.2372 113.923 34.281 113.931 34.2749C116.434 32.4805 119.281 29.8261 122.823 26.758C125.154 24.7396 126.911 23.2616 128.294 21.9259C128.022 21.9107 127.844 21.8839 127.559 21.8703C125.995 21.7961 124.637 21.7281 123.577 21.7407L123.576 21.7407ZM99.6842 30.2014C99.6464 30.2843 99.4127 30.7277 99.3169 30.9604C99.7161 30.3146 99.78 29.9912 99.6842 30.2014Z" fill="url(#paint6_radial_1_50)"/>
</g>
<path d="M47.2567 72.3492C46.427 73.2858 47.9861 76.9858 48.988 79.07C50.2352 81.6686 52.1802 83.9045 54.1615 85.9953C55.5987 87.5188 58.628 87.9541 58.9841 90.0185C59.1952 91.2585 57.0787 92.0301 57.0464 93.2965C57.0325 93.8505 57.3155 94.5298 57.665 95.1894C61.1342 93.5339 64.8673 92.3929 68.1782 90.4274C72.5972 87.8024 76.6468 84.597 80.5843 81.2795C79.8127 81.3718 78.3419 81.5829 77.4119 81.9588C75.6443 82.6712 74.279 84.1222 72.6104 85.0257C71.2451 85.7644 69.8799 86.5427 68.3827 86.945C67.0768 87.2946 65.6983 87.5584 64.366 87.3342C62.981 87.1099 61.7938 86.1668 60.5077 85.6061C58.4037 84.6828 56.0247 84.2673 54.1615 82.9284C52.357 81.6291 50.9554 79.7889 49.7504 77.9158C48.647 76.2076 47.2567 72.3492 47.2567 72.3492Z" fill="url(#paint7_linear_1_50)"/>
<path d="M74.3779 32.1199C74.3779 32.1199 73.5874 32.8455 72.8734 33.7688C72.5164 34.2305 72.1834 34.73 71.9665 35.2528C71.7496 35.7756 71.6502 36.337 71.8635 36.8398C72.0067 37.1778 72.2675 37.4068 72.5642 37.5406C72.861 37.6743 73.1824 37.7397 73.5123 37.7673C74.1722 37.8225 74.878 37.7808 75.3467 37.891C76.5684 38.1782 77.8001 38.1848 78.8299 38.6124C80.7519 39.4102 82.3314 40.9776 84.2093 42.1574C86.0368 43.3056 88.0641 44.0699 89.6093 45.3933C91.7182 47.1996 93.3972 49.5121 94.9887 51.8445C96.1071 53.4835 96.6177 55.6322 97.9979 57.3064C98.4868 57.8994 99.3075 58.5714 100.018 59.1201C100.728 59.6689 101.316 60.0682 101.316 60.0682L101.687 59.5323C101.687 59.5323 101.104 59.1417 100.409 58.6049C99.7145 58.068 98.9037 57.3722 98.4927 56.8736C97.2427 55.3575 96.7367 53.2498 95.5247 51.4735C93.9265 49.1314 92.2314 46.753 90.0422 44.878C88.3786 43.4532 86.3097 42.7003 84.5597 41.6009C82.7667 40.4744 81.1592 38.8583 79.0772 37.9939C77.8854 37.4992 76.6108 37.5152 75.4909 37.2519C74.8659 37.105 74.1614 37.1568 73.5741 37.1077C73.2805 37.0831 73.017 37.0261 72.8321 36.9428C72.6473 36.8595 72.5371 36.751 72.4611 36.5718C72.3498 36.3092 72.404 35.9564 72.5848 35.5206C72.7656 35.0848 73.0738 34.5941 73.4092 34.1603C74.0802 33.2926 74.8314 32.6144 74.8314 32.6144L74.3779 32.1199Z" fill="#E4B832"/>
<path d="M220.958 146.023C212.796 146.023 205.404 143.924 198.781 139.727C192.205 135.483 186.982 129.257 183.111 121.048C179.287 112.793 177.374 102.673 177.374 90.6868C177.374 78.3743 179.357 68.1372 183.321 59.9755C187.285 51.7672 192.555 45.6343 199.131 41.5768C205.754 37.4726 213.006 35.4205 220.888 35.4205C226.904 35.4205 231.918 36.4465 235.929 38.4986C239.986 40.5041 243.251 43.0225 245.723 46.054C248.241 49.0389 250.153 51.9771 251.459 54.8687H252.369V1.00146H282.101V144.274H252.719V127.065H251.459C250.06 130.05 248.078 133.011 245.513 135.949C242.995 138.841 239.707 141.243 235.649 143.155C231.638 145.067 226.741 146.023 220.958 146.023ZM230.402 122.308C235.206 122.308 239.263 121.002 242.575 118.39C245.933 115.732 248.498 112.024 250.27 107.267C252.089 102.51 252.998 96.9364 252.998 90.5469C252.998 84.1575 252.112 78.6075 250.34 73.8971C248.568 69.1866 246.003 65.5488 242.645 62.9837C239.287 60.4186 235.206 59.1361 230.402 59.1361C225.505 59.1361 221.378 60.4652 218.02 63.1236C214.662 65.782 212.12 69.4664 210.394 74.1769C208.669 78.8874 207.806 84.344 207.806 90.5469C207.806 96.7964 208.669 102.323 210.394 107.127C212.167 111.884 214.708 115.615 218.02 118.32C221.378 120.978 225.505 122.308 230.402 122.308Z" fill="#504414"/>
<path d="M368.616 98.5221V36.8196H398.418V144.274H369.806V124.756H368.686C366.261 131.052 362.227 136.113 356.584 139.937C350.987 143.761 344.155 145.673 336.086 145.673C328.904 145.673 322.584 144.041 317.128 140.776C311.671 137.512 307.404 132.871 304.325 126.855C301.294 120.838 299.755 113.633 299.708 105.238V36.8196H329.51V99.9212C329.557 106.264 331.259 111.278 334.617 114.962C337.975 118.646 342.476 120.489 348.119 120.489C351.71 120.489 355.068 119.673 358.193 118.04C361.317 116.361 363.836 113.889 365.748 110.625C367.707 107.36 368.663 103.326 368.616 98.5221Z" fill="#504414"/>
<path d="M415.361 144.274V36.8196H444.254V55.5682H445.373C447.332 48.899 450.62 43.862 455.237 40.4574C459.854 37.0062 465.171 35.2806 471.187 35.2806C472.68 35.2806 474.289 35.3739 476.014 35.5604C477.74 35.747 479.256 36.0035 480.561 36.3299V62.7738C479.162 62.3541 477.227 61.981 474.755 61.6545C472.283 61.3281 470.021 61.1648 467.969 61.1648C463.585 61.1648 459.667 62.1209 456.216 64.0331C452.812 65.8986 450.107 68.5103 448.101 71.8683C446.142 75.2262 445.163 79.0972 445.163 83.4812V144.274H415.361Z" fill="#F5CD3D"/>
<path d="M489.075 144.274V36.8196H517.967V55.5682H519.086C521.045 48.899 524.333 43.862 528.95 40.4574C533.567 37.0062 538.884 35.2806 544.901 35.2806C546.393 35.2806 548.002 35.3739 549.728 35.5604C551.453 35.747 552.969 36.0035 554.275 36.3299V62.7738C552.876 62.3541 550.94 61.981 548.468 61.6545C545.997 61.3281 543.735 61.1648 541.682 61.1648C537.298 61.1648 533.381 62.1209 529.93 64.0331C526.525 65.8986 523.82 68.5103 521.815 71.8683C519.856 75.2262 518.876 79.0972 518.876 83.4812V144.274H489.075Z" fill="#F5CD3D"/>
<path d="M562.788 144.274V36.8196H591.68V55.5682H592.8C594.758 48.899 598.046 43.862 602.664 40.4574C607.281 37.0062 612.598 35.2806 618.614 35.2806C620.106 35.2806 621.715 35.3739 623.441 35.5604C625.167 35.747 626.682 36.0035 627.988 36.3299V62.7738C626.589 62.3541 624.654 61.981 622.182 61.6545C619.71 61.3281 617.448 61.1648 615.396 61.1648C611.012 61.1648 607.094 62.1209 603.643 64.0331C600.238 65.8986 597.533 68.5103 595.528 71.8683C593.569 75.2262 592.59 79.0972 592.59 83.4812V144.274H562.788Z" fill="#F5CD3D"/>
<path d="M636.501 144.274V36.8196H666.303V144.274H636.501Z" fill="#504414"/>
<path d="M713.922 146.303C707.067 146.303 700.957 145.114 695.594 142.735C690.23 140.31 685.986 136.742 682.861 132.032C679.783 127.275 678.244 121.351 678.244 114.262C678.244 108.293 679.34 103.279 681.532 99.2216C683.724 95.1641 686.709 91.8994 690.487 89.4276C694.264 86.9558 698.555 85.0902 703.359 83.831C708.209 82.5718 713.293 81.6857 718.61 81.1726C724.859 80.5197 729.896 79.9134 733.72 79.3537C737.545 78.7474 740.32 77.8613 742.045 76.6954C743.771 75.5294 744.634 73.8038 744.634 71.5185V71.0988C744.634 66.6681 743.235 63.2402 740.436 60.815C737.685 58.3898 733.767 57.1772 728.683 57.1772C723.32 57.1772 719.053 58.3665 715.881 60.7451C712.71 63.077 710.611 66.0152 709.585 69.5597L682.022 67.3211C683.421 60.7917 686.173 55.1485 690.277 50.3914C694.381 45.5876 699.674 41.9032 706.157 39.3381C712.687 36.7264 720.242 35.4205 728.823 35.4205C734.793 35.4205 740.506 36.1201 745.963 37.5192C751.466 38.9184 756.34 41.0871 760.584 44.0253C764.875 46.9635 768.256 50.7412 770.728 55.3584C773.2 59.9289 774.436 65.4089 774.436 71.7983V144.274H746.173V129.373H745.333C743.608 132.731 741.299 135.693 738.408 138.258C735.516 140.776 732.041 142.758 727.984 144.204C723.926 145.603 719.239 146.303 713.922 146.303ZM722.457 125.735C726.841 125.735 730.712 124.873 734.07 123.147C737.428 121.375 740.063 118.996 741.975 116.011C743.888 113.027 744.844 109.645 744.844 105.868V94.4645C743.911 95.0708 742.628 95.6305 740.996 96.1435C739.41 96.6099 737.615 97.053 735.609 97.4727C733.604 97.8458 731.598 98.1956 729.593 98.5221C727.587 98.8019 725.769 99.0584 724.136 99.2916C720.638 99.8046 717.584 100.621 714.972 101.74C712.36 102.859 710.331 104.375 708.886 106.287C707.44 108.153 706.717 110.485 706.717 113.283C706.717 117.341 708.186 120.442 711.124 122.587C714.109 124.686 717.887 125.735 722.457 125.735Z" fill="#504414"/>
<path d="M820.463 82.152V144.274H790.661V36.8196H819.064V55.7781H820.323C822.702 49.5286 826.69 44.5849 832.286 40.9471C837.883 37.2627 844.669 35.4205 852.644 35.4205C860.106 35.4205 866.612 37.0528 872.162 40.3175C877.712 43.5822 882.026 48.246 885.104 54.309C888.182 60.3253 889.721 67.5076 889.721 75.8559V144.274H859.919V81.1726C859.966 74.5966 858.287 69.4664 854.882 65.782C851.478 62.0509 846.791 60.1854 840.821 60.1854C836.81 60.1854 833.266 61.0482 830.187 62.7738C827.156 64.4995 824.777 67.0179 823.052 70.3292C821.373 73.5939 820.51 77.5349 820.463 82.152Z" fill="#504414"/>
</g>
<defs>
<filter id="filter0_f_1_50" x="18.3031" y="16.4753" width="116.905" height="98.6102" filterUnits="userSpaceOnUse" color-interpolation-filters="sRGB">
<feFlood flood-opacity="0" result="BackgroundImageFix"/>
<feBlend mode="normal" in="SourceGraphic" in2="BackgroundImageFix" result="shape"/>
<feGaussianBlur stdDeviation="0.402353" result="effect1_foregroundBlur_1_50"/>
</filter>
<filter id="filter1_f_1_50" x="45.4423" y="16.518" width="88.0724" height="70.5588" filterUnits="userSpaceOnUse" color-interpolation-filters="sRGB">
<feFlood flood-opacity="0" result="BackgroundImageFix"/>
<feBlend mode="normal" in="SourceGraphic" in2="BackgroundImageFix" result="shape"/>
<feGaussianBlur stdDeviation="2.61061" result="effect1_foregroundBlur_1_50"/>
</filter>
<linearGradient id="paint0_linear_1_50" x1="140.239" y1="22.0791" x2="134.402" y2="14.4211" gradientUnits="userSpaceOnUse">
<stop stop-color="#A6A346"/>
<stop offset="0.5" stop-color="#908022" stop-opacity="0.98824"/>
<stop offset="1" stop-color="#5C4000" stop-opacity="0.98824"/>
</linearGradient>
<linearGradient id="paint1_linear_1_50" x1="92.5486" y1="209.093" x2="109.4" y2="20.204" gradientUnits="userSpaceOnUse">
<stop stop-color="#747725"/>
<stop offset="1" stop-color="#938426" stop-opacity="0.98824"/>
</linearGradient>
<radialGradient id="paint2_radial_1_50" cx="0" cy="0" r="1" gradientUnits="userSpaceOnUse" gradientTransform="translate(77.9989 74.5319) scale(77.3452 70.453)">
<stop stop-color="#644304"/>
<stop offset="1" stop-color="#644304" stop-opacity="0"/>
</radialGradient>
<linearGradient id="paint3_linear_1_50" x1="75.8026" y1="35.2133" x2="54.3151" y2="-5.3404" gradientUnits="userSpaceOnUse">
<stop stop-color="#63510D"/>
<stop offset="1" stop-color="#99732D"/>
</linearGradient>
<linearGradient id="paint4_linear_1_50" x1="6.8072" y1="66.5663" x2="159.862" y2="-68.6392" gradientUnits="userSpaceOnUse">
<stop stop-color="#FBF4C6"/>
<stop offset="1" stop-color="#E6E6E6"/>
</linearGradient>
<linearGradient id="paint5_linear_1_50" x1="112.506" y1="28.9059" x2="-25.5305" y2="160.646" gradientUnits="userSpaceOnUse">
<stop stop-color="#F5CD3D"/>
<stop offset="1" stop-color="#F5CD3D" stop-opacity="0"/>
</linearGradient>
<radialGradient id="paint6_radial_1_50" cx="0" cy="0" r="1" gradientUnits="userSpaceOnUse" gradientTransform="translate(84.2047 51.7972) scale(45.9253 36.5806)">
<stop stop-color="white"/>
<stop offset="1" stop-color="white" stop-opacity="0"/>
</radialGradient>
<linearGradient id="paint7_linear_1_50" x1="112.506" y1="28.9061" x2="-25.5304" y2="160.646" gradientUnits="userSpaceOnUse">
<stop stop-color="#F5CD3D"/>
<stop offset="1" stop-color="#F5CD3D" stop-opacity="0"/>
</linearGradient>
<clipPath id="clip0_1_50">
<rect width="889.721" height="145.652" fill="white" transform="translate(0 0.651489)"/>
</clipPath>
</defs>
</svg>
