<svg width="158" height="146" viewBox="0 0 158 146" fill="none" xmlns="http://www.w3.org/2000/svg">
<path d="M149.065 0.0146784L125.688 23.6476L129.367 29.582L157.34 7.41725C157.34 7.41725 157.674 2.9378 156.276 1.50348C154.563 -0.254023 149.065 0.0146784 149.065 0.0146784Z" fill="url(#paint0_linear_1_49)"/>
<path d="M133.012 22.8713L141.946 21.595L140.67 24.6582L150.625 27.466L148.583 34.8688L152.667 34.6135L151.901 39.7187L155.22 37.1661L151.901 44.5689L155.22 47.1215L152.157 48.9083L155.22 51.7161L152.157 53.2477L154.964 55.4174L152.922 57.2042L155.347 60.9055L151.008 61.9265L151.646 63.5857L155.092 65.3725L151.135 66.6488L154.837 70.6053L149.476 70.3501L152.156 73.6685L150.114 73.4132L152.412 75.5829L147.945 75.2L150.114 77.625L145.775 77.1145L147.179 80.1776L146.924 81.5815L147.689 82.8578L145.52 83.496V85.4104L144.499 86.3039L140.414 88.0907L142.457 91.0262L139.649 91.6644L138.883 93.3235L136.33 92.5577L139.011 97.9182H136.458L138.5 100.216L134.926 99.4498L134.671 103.151L130.842 102.64L130.076 104.555L133.778 109.277L128.545 107.746L128.034 109.277L130.204 111.702L123.823 109.533L122.802 113.106L122.546 117.19L125.482 119.488L116.675 117.701L118.462 121.657L116.165 121.913L116.803 123.955L113.485 123.061L115.527 127.784L111.443 126.635L111.826 131.74L108.38 130.081V133.399L105.316 129.187L104.04 137.228L95.6163 132.761L95.1058 139.781L94.5953 142.333L89.1072 139.142L89.4901 144.63L86.2993 140.674L85.9164 144.375L84.1296 140.929L83.8743 145.141L77.4928 139.781L73.1534 139.525L69.7074 145.651L65.4956 138.249L60.9009 136.59L54.647 145.524L53.8812 135.058L48.9037 135.569L45.9682 137.866L43.4156 135.951L37.7999 137.994L36.1407 135.951L30.6526 139.653L27.8447 136.717L25.1645 138.759L20.8251 132.761L17.1238 129.442L14.8265 128.294L13.0396 125.741L9.84887 124.72L10.487 122.423L7.93443 119.998L8.31731 116.935L5.3818 115.658L8.44494 111.829L3.33977 110.426L5.25424 104.555L3.7227 102.385L5.63717 101.236L1.55299 99.0664L4.87137 96.3862L0.659561 95.1099L5.89242 92.4297L1.55299 91.4087L5.50948 88.0903L1.4253 84.7719L6.9134 81.4535L0.659561 77.2417L8.44487 77.8799L4.10544 74.8167L7.93431 73.668L3.7225 71.8812L6.27509 71.1154L3.7225 67.9246H8.44481L6.14747 64.0958L9.21061 63.7129L7.67907 60.7773L11.8909 62.0536L9.08305 56.6932L16.2306 57.076L14.9543 54.2682L18.2727 54.6511L16.3582 46.8658L21.9739 47.7592L18.9108 42.6541L27.3345 46.1001L25.4201 38.0595L27.9727 38.4424C27.9727 38.4424 36.7789 39.2082 36.1412 39.0806C35.5087 38.9447 35.7639 29.1174 35.7639 29.1174L39.5928 32.1806L40.3586 28.6069C40.3586 28.6069 42.6559 30.2661 43.1664 30.5214C43.6769 30.7766 43.8046 24.3952 43.8046 24.3952L50.1861 29.8833L50.569 22.4805L52.8663 23.3739L54.5255 22.7358L54.7807 20.4384L59.2478 25.416V19.6726L61.928 18.6516L65.374 20.1831L66.2674 13.4188L70.2239 19.2898L70.7344 14.8227C70.7344 14.8227 72.0107 14.5675 72.266 14.0569C72.5212 13.5464 72.7765 11.8872 72.7765 11.8872L75.712 14.3122L76.9883 9.71748L79.4133 10.9938V9.33461L84.7738 12.1424L86.05 6.27147L88.475 8.18594L89.8789 4.73993L90.7723 8.56881L93.1973 6.01622L95.7499 8.56881L99.7064 4.86755L99.9616 6.6544L103.408 5.25049L104.939 8.95174L108.513 4.73993L108.385 8.95174L110.683 6.14391L110.938 9.20705L113.49 6.14391L113.618 12.1425L117.447 7.93069L119.999 13.0359L120.127 16.4819L127.147 13.674L127.53 17.7582L133.012 22.8713Z" fill="url(#paint1_linear_1_49)"/>
<path d="M68.2772 144.103C68.053 143.74 66.9225 143.442 65.765 143.44C64.6074 143.438 62.5391 143.125 61.1687 142.744C59.3243 142.232 58.0831 142.267 56.3907 142.879C54.3397 143.62 54.0076 143.573 53.1658 142.422C52.5392 141.565 52.4414 140.881 52.8713 140.363C53.292 139.856 53.2679 138.668 52.8018 136.937C52.1503 134.518 51.8782 134.27 49.67 134.084C47.4052 133.893 47.3222 133.81 48.3633 132.775C49.6982 131.449 50.8745 128.569 50.3113 128.006C49.4715 127.166 46.8003 130.61 46.4131 133.031C46.0201 135.488 45.9496 135.545 43.7874 135.139C41.2997 134.673 40.7366 135.767 42.7186 137.216C44.7887 138.73 43.201 138.838 39.2576 137.452C35.4999 136.131 35.3226 136.126 32.7756 137.275C30.1887 138.441 30.1455 138.438 29.2111 137.031C28.3833 135.784 28.0524 135.704 26.5585 136.384C25.1614 137.021 24.7936 136.988 24.5319 136.203C24.356 135.675 22.2549 133.274 19.8627 130.866C11.1052 122.053 9.24727 119.696 9.24727 117.403C9.24727 116.656 9.96644 117.037 11.6569 118.679C12.9822 119.966 14.4661 121.019 14.9546 121.019C15.4431 121.019 15.8428 121.348 15.8428 121.75C15.8428 122.233 16.6857 122.336 18.3161 122.052C19.6764 121.815 21.6462 121.626 22.6935 121.631C23.7408 121.635 25.4191 121.055 26.4229 120.34C27.4267 119.625 28.4629 119.04 28.7256 119.04C28.9882 119.04 31.266 117.094 33.7873 114.716C37.4788 111.233 38.5525 110.541 39.3003 111.162C40.5587 112.206 42.7492 111.558 46.0573 109.162C48.0279 107.734 48.8204 106.688 48.8204 105.515C48.8204 103.594 49.0167 103.537 51.0448 104.865C52.4331 105.775 52.6647 105.748 53.7479 104.551C54.3995 103.831 55.1429 103.372 55.3998 103.531C55.6568 103.69 57.5889 104.09 59.6934 104.42C64.467 105.168 67.2769 103.942 67.2835 101.106C67.2888 98.9174 66.8512 98.6365 62.6631 98.1406C60.7184 97.9102 59.425 97.449 59.563 97.035C59.9408 95.9016 64.5506 95.1971 66.1141 96.0339C67.312 96.675 67.7616 96.4442 69.6153 94.236C71.2884 92.2433 71.9355 91.8615 72.6478 92.447C73.1459 92.8564 74.2954 93.3011 75.2022 93.4352C76.8303 93.6758 76.8665 93.8282 76.0149 96.8545C75.7073 97.9474 75.9886 98.0507 78.5686 97.7911C80.1632 97.6307 81.9874 97.2688 82.6222 96.9869C84.1095 96.3265 84.2061 98.0761 82.7489 99.2853C81.465 100.351 79.703 104.468 80.1921 105.26C80.3925 105.584 80.9937 105.849 81.5281 105.849C82.6412 105.849 83.8877 108.55 83.1432 109.349C82.8707 109.641 80.3633 109.88 77.5712 109.88C71.9939 109.88 71.183 110.458 72.3008 113.636C73.153 116.059 79.565 119.86 82.0252 119.399C84.2792 118.978 86.1402 120.842 86.8027 124.187C87.1997 126.191 87.3879 126.331 89.1592 125.942C90.6365 125.618 91.6048 125.916 93.3224 127.226C94.5533 128.165 95.7147 128.933 95.9032 128.933C96.5239 128.933 98.469 124.279 98.0313 123.841C97.7959 123.606 96.0756 123.394 94.2086 123.37C90.4178 123.322 89.7557 122.586 91.5315 120.393C92.6829 118.971 92.8371 118.95 95.138 119.912C97.2271 120.784 98.0006 120.798 101.047 120.012C102.975 119.516 105.12 119.168 105.814 119.239C106.734 119.335 107.234 118.774 107.663 117.164C108.19 115.185 108.433 115.002 110.029 115.386C111.007 115.622 112.175 116.296 112.625 116.885C113.075 117.473 113.636 117.761 113.873 117.524C114.11 117.287 113.977 116.7 113.578 116.219C113.179 115.738 113.033 114.65 113.255 113.802C113.637 112.34 113.533 112.283 111.249 112.712C108.941 113.145 108.84 113.086 108.85 111.32C108.867 108.179 109.435 107.888 115.234 108.047L120.605 108.194L120.972 106.362C121.275 104.844 121.679 104.53 123.333 104.53C124.63 104.53 125.328 104.198 125.328 103.58C125.328 102.053 124.023 101.675 122.744 102.833C122.094 103.421 121.1 103.725 120.536 103.509C119.973 103.293 118.573 103.601 117.426 104.194C115.266 105.311 113.456 104.732 113.456 102.924C113.456 101.473 117.416 99.0933 119.124 99.5183C124.308 100.808 124.009 100.838 124.009 99.0336C124.009 98.1024 123.597 97.1032 123.093 96.8131C122.59 96.523 122.059 95.6921 121.914 94.9666C121.706 93.93 121.196 93.6834 119.532 93.8149C117.21 93.9984 117.088 93.8397 118.098 91.9515C118.654 90.9129 119.244 90.7444 121.231 91.0563C123.161 91.3592 123.994 91.145 125.163 90.0451C125.98 89.2775 126.647 88.1945 126.647 87.6384C126.647 86.7972 126.036 86.7037 123.007 87.0822C121.005 87.3323 118.293 88.0843 116.981 88.7534C113.795 90.3775 111.978 89.5148 112.266 86.5146C112.463 84.4512 112.421 84.4166 109.863 84.5741C106.41 84.7867 102.915 82.5074 102.908 80.0386C102.903 78.1747 107.35 73.5312 109.14 73.5312C111.221 73.5312 113.456 75.0805 113.456 76.5226C113.456 80.0158 114.27 82.1053 115.63 82.1053C116.373 82.1053 117.501 82.5773 118.139 83.1541C119.514 84.3984 121.501 83.9372 123.36 81.9424C124.461 80.7603 124.885 80.6729 126.328 81.3304C127.7 81.9558 128.08 81.9184 128.383 81.1282C128.891 79.8031 132.379 78.148 134.663 78.148C135.773 78.148 136.541 77.7941 136.541 77.2828C136.541 75.8354 140.393 73.4255 142.343 73.653C143.768 73.8192 144.168 73.5624 144.337 72.374C144.633 70.2848 142.994 69.8808 139.672 71.224C138.131 71.8471 136.503 72.5028 136.055 72.6812C135.607 72.8597 134.975 72.3077 134.65 71.4547C134.109 70.0314 133.715 69.9132 129.859 70.0202C123.225 70.2043 119.207 70.9255 117.275 72.2789C115.085 73.814 111.938 73.898 110.5 72.4597C108.69 70.649 109.548 68.7362 113.007 66.8706C114.755 65.928 116.754 64.2214 117.449 63.0782C118.144 61.935 119.016 60.9997 119.386 60.9997C119.756 60.9997 121.545 61.7167 123.361 62.5931C126.21 63.9673 126.792 64.058 127.598 63.2526C129.658 61.1924 134.397 62.3337 138.815 65.9541C140.36 67.2194 142.06 68.2547 142.594 68.2547C143.709 68.2547 146.434 65.5648 146.434 64.4642C146.434 63.331 144.007 62.819 142.488 63.6318C140.617 64.6328 139.811 63.9373 140.257 61.7071C140.594 60.0235 140.403 59.7573 138.422 59.1542C134.112 57.842 129.277 57.6767 127.588 58.7837C126.304 59.6251 125.61 59.6787 123.856 59.0719C122.671 58.6618 121.228 57.7054 120.65 56.9465C119.788 55.815 119.356 55.6965 118.25 56.2883C117.129 56.8881 116.611 56.7192 115.179 55.2873C113.171 53.2792 113.071 52.6254 114.527 51.0165C115.468 49.9772 116.37 49.8813 121.947 50.2279C125.7 50.4612 128.706 50.9765 129.298 51.4882C130.051 52.1395 130.994 52.1979 133.104 51.7238C135.236 51.2449 136.261 51.3138 137.379 52.0116C138.187 52.5164 140.104 53.1153 141.638 53.3425C144.373 53.7477 144.415 53.7249 143.821 52.1623C143.236 50.623 143.328 50.5612 146.536 50.343C149.839 50.1184 151.281 50.6239 149.398 51.3464C147.67 52.0094 148.334 54.2438 150.884 56.3451L153.355 58.3821L151.378 59.9969C150.291 60.8851 148.882 61.6224 148.248 61.6355C147.613 61.6486 147.093 62.1374 147.093 62.7219C147.093 63.5746 147.539 63.7009 149.35 63.3612C151.944 62.8746 152.381 63.2812 151.911 65.7431C151.702 66.8315 150.574 68.2032 148.975 69.3115C147.295 70.4753 146.509 71.4557 146.75 72.0845C146.955 72.6196 146.639 73.7966 146.047 74.7002C145.336 75.7853 145.093 77.1015 145.333 78.5764C145.763 81.2248 143.778 85.4555 141.652 86.4224C140.891 86.7685 140.191 87.6188 140.096 88.3119C140.002 89.0051 139.115 90.2173 138.126 91.0059C137.018 91.889 136.52 92.7501 136.827 93.2481C137.5 94.3361 135.952 97.9344 134.812 97.9344C134.281 97.9344 133.902 98.6217 133.902 99.5832C133.902 100.88 133.567 101.232 132.334 101.232C131.472 101.232 130.392 101.683 129.935 102.234C129.257 103.05 129.303 103.456 130.184 104.429C131.749 106.159 131.512 107.032 129.576 106.662C128.248 106.409 127.806 106.649 127.509 107.786C127.177 109.056 126.826 109.182 124.646 108.813C122.18 108.396 122.159 108.412 121.732 110.943C121.495 112.346 121.613 114.315 121.995 115.32C122.377 116.325 122.69 117.286 122.69 117.457C122.69 117.627 121.16 117.563 119.29 117.315C116.055 116.886 115.907 116.932 116.254 118.259C116.501 119.203 116.089 120.184 114.982 121.291C113.835 122.439 113.474 123.333 113.775 124.282C114.136 125.418 113.92 125.635 112.429 125.635C110.795 125.635 110.686 125.799 111.062 127.678L111.47 129.721L107.682 129.492L103.893 129.263L103.684 131.901C103.569 133.352 103.247 134.772 102.968 135.057C102.69 135.342 101.052 134.971 99.3301 134.233C95.4081 132.552 94.989 132.558 94.989 134.298C94.989 135.072 94.65 136.837 94.2356 138.22C93.5533 140.497 93.3102 140.7 91.659 140.37C90.1704 140.072 89.8547 140.23 89.9391 141.23C90.0219 142.211 89.5546 142.468 87.5866 142.523C86.2359 142.562 84.7209 142.933 84.2199 143.349C83.5624 143.895 82.3455 143.922 79.8442 143.448C76.2888 142.774 71.4924 143.17 70.8619 144.189C70.3808 144.968 68.7786 144.914 68.2772 144.103ZM64.6497 138.897C64.6497 138.573 64.2045 138.137 63.6603 137.928C62.655 137.543 62.3096 138.245 63.1107 139.046C63.741 139.677 64.6497 139.589 64.6497 138.897ZM75.4669 134.995C76.5511 132.899 75.9079 131.16 74.2795 131.784C73.1975 132.2 72.9122 133.95 73.6239 135.805C74.1679 137.222 74.3586 137.138 75.4669 134.995ZM59.0824 134.577C60.3435 133.64 60.3415 133.605 58.9452 132.189C57.216 130.436 56.0756 130.992 56.0756 133.589C56.0756 135.741 57.0749 136.069 59.0824 134.577ZM84.9433 132.231C84.9433 129.44 84.7522 128.933 83.7003 128.933C82.2786 128.933 82.1905 129.595 83.1516 133.055C84.1129 136.517 84.9433 136.135 84.9433 132.231ZM71.0803 129.419C71.5337 129.063 71.9047 128.209 71.9047 127.521C71.9047 126.541 71.5724 126.353 70.3718 126.655C69.3956 126.9 68.5254 126.662 67.9758 126C67.3179 125.207 66.8986 125.138 66.211 125.708C65.3003 126.464 64.9637 129.687 65.7168 130.44C66.2477 130.971 70.0184 130.253 71.0803 129.419ZM82.9264 127.474C84.3196 126.97 85.067 126.299 84.946 125.66C84.6933 124.326 79.5143 122.978 76.3567 123.424C74.8893 123.631 73.8834 123.5 73.8834 123.101C73.8834 122.732 74.5512 122.335 75.3674 122.219C77.3605 121.936 77.9532 118.38 76.0072 118.38C74.0944 118.38 70.3083 120.44 71.2036 120.993C71.62 121.25 72.1966 122.326 72.485 123.383C72.938 125.044 73.2855 125.279 75.0384 125.106C76.583 124.954 77.3565 125.304 78.2785 126.57C79.68 128.494 79.957 128.548 82.9264 127.474ZM44.1938 125.8C47.9042 123.754 48.4686 122.338 45.5734 122.338C44.2999 122.338 42.9566 123.027 41.6161 124.367C38.0036 127.98 39.1185 128.6 44.1938 125.8ZM102.66 124.626C102.201 123.429 100.928 123.348 100.928 124.516C100.928 125.717 102.492 127.211 102.796 126.3C102.925 125.912 102.864 125.159 102.66 124.626ZM60.7181 124.637C66.0265 121.947 64.5959 119.702 57.5737 119.702C53.774 119.702 52.1221 120.441 52.1221 122.142C52.1221 123.316 54.4116 123.225 55.4198 122.01C55.8714 121.466 56.5473 121.021 56.9219 121.021C57.2964 121.021 57.1117 121.563 56.5113 122.227C55.2147 123.66 55.1435 124.438 56.2112 125.506C57.2173 126.512 56.8968 126.573 60.7181 124.637ZM46.1863 119.042C46.1863 118.679 45.907 118.382 45.5656 118.382C45.2243 118.382 44.7616 118.679 44.5374 119.042C44.3132 119.405 44.5925 119.702 45.158 119.702C45.7236 119.702 46.1863 119.405 46.1863 119.042ZM40.8154 118.317C44.4036 117.066 44.3827 112.381 40.7933 113.354C38.7932 113.896 34.8021 117.571 35.3139 118.399C35.84 119.25 38.2402 119.214 40.8154 118.317ZM65.1923 116.569C64.9191 114.194 62.3761 113.635 61.8037 115.824C61.294 117.773 61.7567 118.382 63.7473 118.382C65.1623 118.382 65.3709 118.121 65.1923 116.569ZM59.5366 115.491C60.1047 114.923 60.3444 113.677 60.1711 112.193L59.8927 109.808H56.4181C54.2971 109.808 52.6542 110.157 52.2008 110.703C51.1949 111.915 52.0024 115.604 53.3523 115.964C55.6904 116.586 58.6692 116.358 59.5366 115.491ZM118.737 111.127C118.737 110.765 118.44 110.468 118.077 110.468C117.715 110.468 117.418 110.765 117.418 111.127C117.418 111.49 117.715 111.787 118.077 111.787C118.44 111.787 118.737 111.49 118.737 111.127ZM69.8032 109.37C71.0227 108.6 71.2845 107.927 71.1223 105.976C70.9615 104.042 70.62 103.5 69.4582 103.335C68.2697 103.166 67.6873 103.768 66.3417 106.557C65.4316 108.444 64.8529 110.256 65.0559 110.584C65.488 111.283 67.6467 110.731 69.8032 109.37ZM130.251 90.7267C130.794 89.8485 129.426 89.1687 128.123 89.6688C127.173 90.0335 127.154 90.1781 127.99 90.7065C129.227 91.4891 129.777 91.494 130.251 90.7267ZM138.698 86.9891C139.4 86.2876 138.415 84.7452 137.266 84.7452C136.652 84.7452 135.828 84.4232 135.434 84.0297C134.455 83.0506 131.599 83.539 131.599 84.6856C131.599 85.9209 137.766 87.9218 138.698 86.9891ZM141.162 79.4478C141.162 78.6582 139.302 77.8113 138.759 78.3538C138.182 78.9314 139.161 80.1281 140.212 80.1281C140.734 80.1281 141.162 79.8219 141.162 79.4478ZM146.071 59.5354C146.636 58.7291 147.098 57.8188 147.098 57.5123C147.098 56.7476 144.354 57.6319 143.141 58.7874C142.261 59.6251 142.261 59.7993 143.141 60.3554C144.577 61.2635 144.93 61.1647 146.071 59.5354ZM47.6667 140.066C45.1658 139.344 45.0661 139.116 46.8355 138.17C47.8379 137.633 48.539 137.723 49.8035 138.552C52.8385 140.541 51.8169 141.265 47.6667 140.066ZM78.5006 114.544C78.5006 113.431 78.7232 112.39 78.9952 112.23C79.8288 111.739 82.4634 113.01 82.8837 114.105C83.3892 115.422 83.1496 115.636 80.596 116.147C78.6063 116.545 78.5006 116.464 78.5006 114.544ZM98.0054 115.299C97.517 114.027 98.3113 113.396 101.729 112.343C103.642 111.754 104.403 111.772 105.191 112.426C106.722 113.696 106.426 114.396 103.914 115.445C100.878 116.714 98.5258 116.656 98.0054 115.299ZM85.2194 115.041C85.3781 114.565 85.8975 114.045 86.3736 113.886C86.8683 113.722 87.1156 113.969 86.9507 114.464C86.792 114.94 86.2726 115.459 85.7965 115.618C85.3018 115.783 85.0545 115.535 85.2194 115.041ZM91.0317 115.082C92.3104 114.256 93.0103 114.256 93.0103 115.082C93.0103 115.445 92.3425 115.737 91.5263 115.731C90.3263 115.723 90.2316 115.599 91.0317 115.082ZM7.41411 114.29C6.90838 113.785 6.88582 113.171 7.34162 112.32C8.12082 110.864 9.2563 111.326 9.2563 113.099C9.2563 114.67 8.36795 115.244 7.41411 114.29ZM87.081 112.326C87.081 111.901 86.5855 111.006 85.9799 110.337C84.9506 109.2 84.9535 109.066 86.0244 108.283C86.8718 107.663 87.2013 106.378 87.2904 103.347L87.4107 99.2496L90.81 98.2595C95.2981 96.9523 95.6551 96.9949 95.6551 98.8376C95.6551 100.717 94.6739 101.631 92.0239 102.218C88.1645 103.074 88.1163 103.118 89.4346 104.574C90.3038 105.535 91.2953 105.859 92.926 105.715C95.1664 105.517 95.2044 105.557 95.2644 108.138C95.3225 110.64 95.2173 110.781 93.0169 111.149C91.7473 111.362 90.0602 111.887 89.2678 112.317C87.4642 113.296 87.081 113.297 87.081 112.326ZM100.931 104.854C100.931 103.571 101.27 103.205 102.454 103.205C103.292 103.205 104.553 103.645 105.257 104.182C106.366 105.028 106.405 105.248 105.548 105.821C105.004 106.185 103.743 106.487 102.745 106.493C101.248 106.501 100.931 106.216 100.931 104.854ZM5.03314 104.696C4.81114 104.474 5.23226 103.651 5.96897 102.866C7.307 101.442 7.30707 101.439 5.99661 99.7729C5.27513 98.8557 4.85704 97.933 5.0675 97.7225C5.63454 97.1555 9.26738 100.019 8.84592 100.701C8.64756 101.022 8.82205 101.69 9.23363 102.186C9.6564 102.695 9.72244 103.248 9.38543 103.456C7.95783 104.339 5.40341 105.066 5.03314 104.696ZM107.019 100.124C106.439 99.8906 106.31 99.0729 106.605 97.4983L107.034 95.2115L104.81 96.5676C101.586 98.5329 99.8907 98.3417 99.0456 95.9176C98.3799 94.0078 98.9315 92.198 102.014 86.18C102.24 85.738 108.192 91.9165 108.192 92.5935C108.192 92.9886 108.894 93.3119 109.752 93.3119C111.552 93.3119 114.787 95.6312 114.787 96.9221C114.787 97.9721 110.557 100.588 108.978 100.515C108.364 100.486 107.483 100.31 107.019 100.124ZM4.78251 95.1245C4.29455 94.5337 4.50532 93.7988 5.52622 92.5312C6.81049 90.9367 7.07636 90.855 8.22456 91.702C9.47157 92.6219 9.4657 92.6762 7.94471 94.2953C6.18207 96.1715 5.74248 96.2868 4.78251 95.1245ZM84.6802 94.9421C84.4108 94.2401 84.8054 92.6783 85.6596 91.0653C87.4729 87.6417 87.459 87.5053 85.2728 87.2537C83.0071 86.993 82.5453 84.4903 84.3388 82.1908C85.5019 80.6996 85.6367 80.6778 87.5588 81.6718C88.6622 82.2424 89.7454 83.1793 89.9658 83.7539C90.1863 84.3284 90.7416 84.7494 91.1999 84.6894C91.6582 84.6294 93.0013 84.6155 94.1845 84.6585C96.3302 84.7364 96.3347 84.7439 95.8975 87.4781C95.4862 90.0502 95.5468 90.1967 96.879 89.8483C97.925 89.5748 98.2989 89.7749 98.2989 90.6083C98.2989 92.7731 96.5715 94.1732 93.2837 94.6731C91.5077 94.9431 88.9468 95.3786 87.5929 95.6409C85.568 96.0332 85.0513 95.9092 84.6802 94.9421ZM4.30764 90.0153C4.08187 89.6499 4.33817 89.1818 4.87727 88.975C6.49178 88.3554 6.65845 86.8104 5.25212 85.5002C3.93282 84.2711 3.93335 84.2668 5.5409 83.2135C6.96229 82.2822 7.08846 81.8787 6.61504 79.7798C6.20694 77.9703 6.30102 77.3161 7.00832 77.0446C7.51964 76.8484 7.93802 76.2744 7.93802 75.7691C7.93802 74.4003 8.84621 74.6481 10.9393 76.5879L12.8141 78.3254L10.3597 79.7208C7.94639 81.0927 7.90728 81.1792 8.0287 84.8768C8.15311 88.6656 7.30597 90.6796 5.58778 90.6796C5.10948 90.6796 4.5334 90.3806 4.30764 90.0153ZM71.6739 89.6927C71.3992 88.9767 71.8311 88.4568 73.0782 88.0025C74.0689 87.6416 75.6776 87.0289 76.6533 86.641C78.9623 85.7228 80.515 86.5658 78.8105 87.8121C78.1421 88.3009 77.0479 88.7008 76.3789 88.7008C75.71 88.7008 74.467 89.1567 73.6167 89.7138C72.2226 90.6272 72.0317 90.6252 71.6739 89.6927ZM98.687 81.5486C98.4588 81.1793 98.5934 80.6785 98.9863 80.4357C100 79.809 100.655 80.6675 99.808 81.514C99.3344 81.9876 98.9654 81.9991 98.687 81.5486ZM89.7653 79.5311C89.0147 78.4769 88.4005 77.4235 88.4005 77.1902C88.4005 76.5631 94.8415 70.2332 95.4795 70.2332C95.78 70.2332 96.3769 71.0494 96.806 72.047C97.2351 73.0446 97.9375 74.3342 98.3668 74.9129C99.5624 76.5243 98.5719 79.201 96.4883 79.9893C92.1854 81.6174 91.2029 81.5505 89.7653 79.5311ZM118.111 79.3475C116.453 77.5687 116.449 77.3608 118.022 75.4178C119.059 74.1378 119.91 73.8582 122.804 73.8462C124.74 73.8383 126.622 73.6505 126.984 73.4291C127.347 73.2077 128.589 72.8239 129.744 72.5763C131.382 72.2251 132.145 72.426 133.207 73.488C133.956 74.2371 134.569 75.1322 134.569 75.4769C134.569 75.8216 132.762 76.3081 130.553 76.558C127.884 76.8601 125.949 77.5007 124.782 78.4691C122.026 80.7567 119.708 81.0619 118.111 79.3475ZM98.9297 71.1678C98.2172 69.5053 97.6341 67.9037 97.6341 67.6086C97.6341 66.9632 102.083 62.9781 102.804 62.9781C103.804 62.9781 107.527 67.3523 107.527 68.5267C107.527 70.0359 103.061 74.1905 101.439 74.1905C100.626 74.1905 99.7982 73.1938 98.9297 71.1678ZM7.40422 71.6584C6.84441 71.2943 6.69586 70.4825 6.98106 69.3462C7.4899 67.3187 7.36837 67.3641 9.58515 68.3741C10.7584 68.9087 11.234 69.5816 11.1001 70.5177C10.8916 71.9758 8.85773 72.6036 7.40422 71.6584ZM10.3128 67.4301C9.36149 65.9478 9.03066 64.698 9.17807 63.143C9.29525 61.9067 11.6887 62.1503 12.1872 63.4493C12.5611 64.4238 12.733 64.3554 13.431 62.9546C14.144 61.5239 14.6731 61.3292 17.8494 61.3292C21.2377 61.3292 21.4699 61.4331 21.6557 63.0313C21.8448 64.6571 21.7185 64.7276 18.8346 64.6075C15.7011 64.477 14.5117 65.1997 15.7773 66.4652C17.2839 67.9718 16.557 68.9141 13.8882 68.9141C11.89 68.9141 11.0384 68.5606 10.3128 67.4301ZM106.561 63.3942C104.864 61.17 104.851 59.0208 106.534 59.0208C106.998 59.0208 107.863 58.2788 108.458 57.372C109.838 55.2654 111.522 55.283 114.074 57.4306C117.193 60.055 116.732 63.0816 112.975 64.6513C109.564 66.0763 108.438 65.8559 106.561 63.3942ZM20.1335 60.1361C18.8109 59.1733 17.193 58.6963 15.2501 58.6963C13.3644 58.6963 12.2347 58.3756 12.0317 57.7826C11.7855 57.0635 12.2306 56.9649 14.1206 57.3194C16.0839 57.6878 16.6015 57.5536 16.9558 56.5843C17.1942 55.9322 17.9171 54.7101 18.5623 53.8686C19.4614 52.6959 19.5892 51.9543 19.1095 50.6928C18.1554 48.1833 18.323 47.8138 20.4153 47.8138C21.4777 47.8138 22.7921 47.3686 23.3362 46.8244C24.8249 45.3357 28.3771 45.7409 28.3771 47.3994C28.3771 47.8194 28.964 49.2582 29.6814 50.5968C31.1941 53.419 30.7501 53.9599 27.6509 53.071C26.4227 52.7188 24.5997 52.4306 23.5997 52.4306C21.5532 52.4306 21.3499 53.4004 22.4244 58.0361C23.2036 61.3974 22.6117 61.94 20.1335 60.1361ZM136.728 49.6228C136.378 49.1694 135.914 48.3013 135.698 47.6937C135.362 46.7483 134.967 46.693 132.957 47.31C131.174 47.8571 130.233 47.8307 129.056 47.2007C128.203 46.744 126.521 46.4715 125.32 46.595C124.082 46.7224 123.027 46.4939 122.884 46.0675C122.545 45.0507 125.842 42.5327 127.514 42.5327C128.252 42.5327 129.406 42.0358 130.077 41.4284C131.151 40.4561 131.827 40.415 135.735 41.0844C138.176 41.5025 140.947 42.026 141.893 42.2478C143.775 42.6887 144.762 41.4505 143.786 39.8723C143.345 39.1578 142.893 39.1361 141.517 39.7632C140.119 40.4003 139.732 40.3722 139.44 39.6123C138.752 37.8196 140.415 35.9373 142.687 35.9373C143.864 35.9373 145.466 35.4889 146.248 34.9409C147.75 33.889 148.676 34.4947 148.052 36.1209C147.82 36.725 148.188 37.2151 149.039 37.4377C151.019 37.9553 150.709 38.7355 147.933 40.2243C145.755 41.3922 145.396 41.9511 144.801 45.0983C144.145 48.5689 144.059 48.6741 141.162 49.5402C137.505 50.6332 137.51 50.6331 136.728 49.6228ZM147.593 48.2101C146.199 47.152 146.104 45.6098 147.369 44.5601C148.008 44.03 148.434 44.0055 148.728 44.4818C148.964 44.8635 149.893 44.9911 150.792 44.7654L152.428 44.355L151.289 46.7416C150.065 49.3103 149.393 49.577 147.593 48.2101ZM33.7083 46.581C33.1983 45.628 33.1641 44.7815 33.6025 43.9624C34.1116 43.0111 33.8421 42.3051 32.3438 40.6647L30.4373 38.5773L33.8627 38.4457C35.7467 38.3732 38.1043 38.3428 39.1019 38.378C41.3169 38.4562 41.4817 37.1436 39.4317 35.7527C37.6359 34.5342 38.376 33.4848 41.2454 33.1808C43.1324 32.9809 43.2166 33.0782 43.0613 35.2796C42.7527 39.6528 42.3212 40.556 40.5406 40.556C39.6226 40.556 37.9762 41.019 36.8819 41.5849C35.2174 42.4457 34.9532 42.9036 35.2647 44.388C35.4694 45.3638 35.3726 46.5732 35.0495 47.0757C34.579 47.8073 34.3118 47.7087 33.7083 46.581ZM149.736 42.162C149.736 41.5965 150.033 41.3172 150.396 41.5414C150.758 41.7656 151.055 42.2283 151.055 42.5697C151.055 42.911 150.758 43.1903 150.396 43.1903C150.033 43.1903 149.736 42.7276 149.736 42.162ZM27.7196 40.2256C27.7196 39.6815 28.0164 39.2363 28.3792 39.2363C28.7419 39.2363 29.0387 39.6815 29.0387 40.2256C29.0387 40.7697 28.7419 41.2149 28.3792 41.2149C28.0164 41.2149 27.7196 40.7697 27.7196 40.2256ZM48.0007 33.0867C47.0032 32.2699 46.187 30.9782 46.187 30.2162C46.187 28.9767 46.5148 28.8514 49.2998 29.0267C52.7941 29.2466 53.2718 29.8668 52.109 32.674C51.15 34.9892 50.4148 35.0631 48.0007 33.0867ZM136.545 32.3107C137.441 31.231 139.183 30.9667 139.183 31.9104C139.183 32.5175 137.622 33.3 136.41 33.3C135.995 33.3 136.048 32.9097 136.545 32.3107ZM143.8 32.1043C143.8 31.8094 144.691 30.7151 145.779 29.6725C147.636 27.8933 147.757 27.8626 147.757 29.1722C147.757 29.9397 147.291 31.034 146.721 31.604C145.627 32.6984 143.8 33.0112 143.8 32.1043ZM58.1842 27.3279C56.4547 26.6343 56.825 25.3854 58.7601 25.3854C59.7892 25.3854 60.0403 24.9218 60.0403 23.0221C60.0403 19.9746 61.4647 20.3093 62.2824 23.5489C63.3072 27.6096 61.9673 28.8451 58.1842 27.3279ZM67.0755 22.3076C66.2109 21.4429 66.6722 20.4267 68.2648 19.6883C69.5059 19.1129 70.1496 19.1323 71.0235 19.7713C72.0611 20.5301 71.9776 20.701 70.0919 21.6761C67.7375 22.8936 67.6747 22.9067 67.0755 22.3076ZM77.5815 18.5881C75.9187 17.3722 76.4159 14.5658 78.3425 14.2921C79.6729 14.1032 79.8265 14.3592 79.8265 16.7655C79.8265 19.6352 79.4412 19.948 77.5815 18.5881ZM85.7625 12.5631C85.7625 11.381 86.8522 10.6557 87.7732 11.2249C88.246 11.5171 88.2204 11.9468 87.6925 12.5829C86.6959 13.7837 85.7625 13.7741 85.7625 12.5631ZM93.1271 12.1535C90.798 11.22 91.7671 9.96151 94.875 9.88355C97.6715 9.81339 98.3455 10.5598 96.8427 12.0626C95.9219 12.9834 95.2394 13.0001 93.1271 12.1535Z" fill="#65581D"/>
<path d="M133.012 21.5522L141.946 20.2759L140.67 23.3391L150.625 26.1469L148.583 33.5497L152.667 33.2944L151.901 38.3996L155.22 35.847L151.901 43.2498L155.22 45.8024L152.157 47.5892L155.22 50.397L152.157 51.9286L154.964 54.0983L152.922 55.8851L155.347 59.5864L151.008 60.6074L151.646 62.2666L155.092 64.0535L151.135 65.3297L154.837 69.2862L149.476 69.031L152.156 72.3494L150.114 72.0941L152.412 74.2638L147.945 73.8809L150.114 76.3059L145.775 75.7954L147.179 78.8585L146.924 80.2624L147.689 81.5387L145.52 82.1769V84.0913L144.499 84.9848L140.414 86.7716L142.457 89.7071L139.649 90.3453L138.883 92.0044L136.33 91.2386L139.011 96.5991H136.458L138.5 98.8965L134.926 98.1307L134.671 101.832L130.842 101.321L130.076 103.236L133.778 107.958L128.545 106.427L128.034 107.958L130.204 110.383L123.823 108.213L122.802 111.787L122.546 115.871L125.482 118.169L116.675 116.382L118.462 120.338L116.165 120.593L116.803 122.636L113.485 121.742L115.527 126.464L111.443 125.316L111.826 130.421L108.38 128.762V132.08L105.316 127.868L104.04 135.909L95.6163 131.442L95.1058 138.461L94.5953 141.014L89.1072 137.823L89.4901 143.311L86.2993 139.355L85.9164 143.056L84.1296 139.61L83.8743 143.822L77.4928 138.461L73.1534 138.206L69.7074 144.332L65.4956 136.93L60.9009 135.27L54.647 144.205L53.8812 133.739L48.9037 134.25L45.9682 136.547L43.4156 134.632L37.7999 136.674L36.1407 134.632L30.6526 138.334L27.8447 135.398L25.1645 137.44L20.8251 131.442L17.1238 128.123L14.8265 126.975L13.0396 124.422L9.84887 123.401L10.487 121.104L7.93443 118.679L8.31731 115.615L5.3818 114.339L8.44494 110.51L3.33977 109.106L5.25424 103.235L3.7227 101.066L5.63717 99.9171L1.55299 97.7473L4.87137 95.0671L0.659561 93.7908L5.89242 91.1106L1.55299 90.0896L5.50948 86.7712L1.4253 83.4528L6.9134 80.1344L0.659561 75.9226L8.44487 76.5608L4.10544 73.4976L7.93431 72.349L3.7225 70.5621L6.27509 69.7963L3.7225 66.6055H8.44481L6.14747 62.7767L9.21061 62.3938L7.67907 59.4582L11.8909 60.7345L9.08305 55.3741L16.2306 55.757L14.9543 52.9491L18.2727 53.332L16.3582 45.5467L21.9739 46.4401L18.9108 41.335L27.3345 44.781L25.4201 36.7404L27.9727 37.1233C27.9727 37.1233 36.7789 37.8891 36.1412 37.7615C35.5087 37.6256 35.7639 27.7983 35.7639 27.7983L39.5928 30.8615L40.3586 27.2878C40.3586 27.2878 42.6559 28.947 43.1664 29.2023C43.6769 29.4576 43.8046 23.0761 43.8046 23.0761L50.1861 28.5642L50.569 21.1614L52.8663 22.0548L54.5255 21.4167L54.7807 19.1193L59.2478 24.0969V18.3535L61.928 17.3325L65.374 18.864L66.2674 12.0997L70.2239 17.9707L70.7344 13.5036C70.7344 13.5036 72.0107 13.2484 72.266 12.7378C72.5212 12.2273 72.7765 10.5681 72.7765 10.5681L75.712 12.9931L76.9883 8.39838L79.4133 9.67468V8.01552L84.7738 10.8233L86.05 4.95238L88.475 6.86685L89.8789 3.42084L90.7723 7.24972L93.1973 4.69713L95.7499 7.24972L99.7064 3.54846L99.9616 5.33531L103.408 3.93139L104.939 7.63265L108.513 3.42084L108.385 7.63265L110.683 4.82482L110.938 7.88796L113.49 4.82482L113.618 10.8234L117.447 6.6116L119.999 11.7168L120.127 15.1628L127.147 12.355L127.53 16.4391L133.012 21.5522Z" fill="url(#paint2_radial_1_49)"/>
<path d="M89.9103 9.92169C90.7891 12.1996 88.1602 13.9984 86.4889 12.4156C84.6421 14.2639 88.3135 16.197 89.6012 17.0324C90.7432 14.9088 93.8284 13.9457 95.8463 14.7034C97.1712 13.8815 98.7574 12.1226 98.5051 10.9729C96.7737 12.4175 95.494 9.89162 93.9295 10.7668C92.6194 9.69758 91.3467 11.7612 89.9103 9.92169ZM110.48 10.4988C110.472 10.5047 110.468 10.5136 110.46 10.5194H110.501C110.491 10.5137 110.491 10.5046 110.48 10.4988ZM80.3469 13.2813C79.1593 13.32 79.3697 16.0066 77.5026 15.0538C77.0575 17.0745 74.6638 16.0707 74.0812 17.7539C73.8905 19.3034 73.3086 23.2649 70.6598 21.3814C69.632 20.6735 68.7222 18.3846 68.5162 20.8868C67.8641 22.9295 65.704 22.7957 64.3322 21.7318C62.3906 21.2328 60.2519 22.4795 61.4261 24.5143C62.5152 26.6024 60.0769 29.3509 58.2932 27.2555C57.6027 26.3369 56.9169 25.7972 57.2627 27.3791C56.3472 28.9175 54.5954 27.9539 53.7382 26.9257C53.77 29.0249 52.5995 33.1176 49.7397 31.522C48.4592 31.2537 46.3158 28.3569 46.8954 31.1716C46.8429 33.5092 44.0596 33.8429 42.8144 34.6754C41.5696 35.8773 39.7073 34.2622 38.8365 33.7686C38.8609 35.7867 38.9836 37.2212 39.9907 38.6327C39.2866 42.1867 34.3649 40.8766 31.8704 40.4465C30.2265 40.0574 33.9176 41.7362 33.4574 43.0641C33.5944 44.8297 31.4037 44.5685 32.0559 46.4443C30.8269 48.8311 34.7713 50.1552 36.5697 50.9581C35.8158 47.8092 35.9985 41.7158 40.6094 41.9922C42.6632 42.7398 43.3368 41.8622 42.7942 40.0548C42.5794 38.2255 44.1722 38.1724 45.2056 37.7669C46.7371 35.6716 49.4306 36.6702 51.4094 36.1593C53.6695 34.5257 53.0391 30.7756 56.2118 30.0997C58.583 28.6999 62.1204 29.7455 64.1468 28.7187C64.3049 26.6566 66.872 24.7283 68.4133 26.1424C68.803 23.2102 72.134 22.3061 74.3698 23.8958C75.9673 24.3477 74.215 20.5048 76.3691 20.2271C78.0864 19.2218 81.7277 22.4468 80.9653 19.0935C80.8542 17.234 81.088 15.0019 80.6149 13.3018C80.5224 13.2789 80.426 13.2787 80.3469 13.2813ZM29.067 41.0443C28.5399 41.0852 28.1079 41.4568 28.9845 42.2604C29.583 44.5764 30.3605 43.3574 29.7059 41.8894C30.2161 41.2935 29.594 41.0034 29.067 41.0443ZM6.37455 96.7554L4.66382 97.3119C4.33089 99.5045 6.49505 98.2258 6.37455 96.7554ZM7.48754 97.5593C7.16818 97.4994 6.94037 98.32 6.80741 98.5898C6.26112 100.733 8.35161 98.6048 7.48754 97.5593ZM3.8806 99.5791C1.48196 99.5046 5.72925 102.676 5.57069 99.9089L5.34397 99.8265C4.69836 99.6558 4.2233 99.5898 3.8806 99.5791ZM10.8059 101.022C10.8182 100.918 10.4613 101.631 10.27 102.279C10.6574 101.441 10.7985 101.084 10.8059 101.022ZM10.9707 101.372C10.9213 101.358 10.642 101.795 10.4761 102.382C10.9157 101.663 11.0092 101.383 10.9707 101.372ZM11.5066 101.62C11.3677 101.675 10.7784 102.349 10.9089 102.671C12.344 103.619 11.7388 102.777 11.6097 102.65C11.7383 102.351 12.0657 101.43 11.012 102.403C11.518 101.767 11.59 101.586 11.5066 101.62ZM8.33255 102.155C6.48232 102.744 6.74832 102.489 8.33255 102.155V102.155ZM5.38516 102.279C4.31043 102.841 4.09898 105.205 6.10658 104.485C6.35584 105.739 8.00746 104.363 6.62185 104.423C8.86135 104.13 6.48154 102.44 5.38516 102.279ZM11.8982 103.619C11.7028 103.631 11.4313 103.643 11.0738 103.681C12.3062 103.636 12.4844 103.584 11.8982 103.619ZM11.4242 104.402C11.2561 104.405 11.1414 104.416 11.0944 104.423C11.1664 104.435 11.5879 104.445 12.4135 104.402C11.9885 104.385 11.6482 104.398 11.4242 104.402ZM5.77677 105C5.70205 104.989 5.87368 105.654 5.96227 106.072C6.05171 106.034 6.14241 106.002 6.25082 105.948C5.95216 105.255 5.8216 105.006 5.77677 105ZM5.96227 106.072C5.92289 106.088 5.87452 106.12 5.8386 106.133C6.03996 106.539 6.03087 106.395 5.96227 106.072ZM5.8386 106.133C5.75512 105.965 5.59097 105.615 5.42639 105.226C5.51644 105.723 4.78891 105.478 5.42639 105.968C5.15288 105.754 4.82473 106.516 5.8386 106.133ZM11.115 105.309C10.7356 105.574 11.3744 107.386 11.3211 106.236C11.6879 106.609 12.1056 106.993 11.8364 106.154C11.797 106.323 12.9094 105.382 11.115 105.309ZM7.30201 106.504C7.28185 106.513 7.46345 106.915 7.87911 107.7C7.54411 106.879 7.32217 106.495 7.30201 106.504ZM5.48825 106.566C4.32857 106.573 4.63717 106.821 6.08597 106.566C5.85991 106.554 5.65392 106.565 5.48825 106.566ZM6.74548 106.71C6.71507 106.689 6.86071 107.085 7.26075 107.968C6.98235 107.168 6.77589 106.731 6.74548 106.71ZM6.12716 106.958C4.65933 107.113 5.20451 107.463 5.42639 107.432C5.20644 108.008 5.1117 108.554 5.55005 108.112C5.78521 108.122 6.64873 108.729 6.14777 106.958L6.12716 106.958ZM9.28059 111.121C7.18534 111.216 10.3754 112.176 9.28059 111.121V111.121ZM9.38364 114.11C8.43871 114.791 7.72732 115.223 9.15692 115.862C10.2954 117.448 9.55584 116.337 10.2081 115.223C10.4727 114.965 9.43535 114.037 9.38364 114.11Z" fill="url(#paint3_linear_1_49)"/>
<path opacity="0.20498" d="M132.352 21.5522L141.287 20.2759L140.01 23.3391L149.965 26.1469L147.923 33.5497L152.008 33.2944L151.242 38.3996L154.56 35.847L151.242 43.2498L154.56 45.8024L151.497 47.5892L154.56 50.397L151.497 51.9286L154.305 54.0983L152.263 55.8851L154.688 59.5864L150.348 60.6074L150.986 62.2666L154.432 64.0535L150.476 65.3297L154.177 69.2862L148.817 69.031L151.497 72.3494L149.455 72.0941L151.752 74.2638L147.285 73.8809L149.455 76.3059L145.115 75.7954L146.519 78.8585L146.264 80.2624L147.03 81.5387L144.86 82.1769V84.0913L143.839 84.9848L139.755 86.7716L141.797 89.7071L138.989 90.3453L138.223 92.0044L135.671 91.2386L138.351 96.5991H135.798L137.84 98.8965L134.267 98.1307L134.012 101.832L130.183 101.321L129.417 103.236L133.118 107.958L127.885 106.427L127.375 107.958L129.545 110.383L123.163 108.213L122.142 111.787L121.887 115.871L124.822 118.169L116.016 116.382L117.803 120.338L115.505 120.593L116.144 122.636L112.825 121.742L114.867 126.464L110.783 125.316L111.166 130.421L107.72 128.762V132.08L104.657 127.868L103.381 135.909L94.9568 131.442L94.4463 138.461L93.9357 141.014L88.4476 137.823L88.8305 143.311L85.6398 139.355L85.2569 143.056L83.47 139.61L83.2148 143.822L76.8333 138.461L72.4938 138.206L69.0478 144.332L64.836 136.93L60.2413 135.27L53.9875 144.205L53.2217 133.739L48.2441 134.25L45.3086 136.547L42.756 134.632L37.1403 136.674L35.4812 134.632L29.993 138.334L27.1852 135.398L24.5049 137.44L20.1655 131.442L16.4643 128.123L14.1669 126.975L12.3801 124.422L9.1893 123.401L9.82745 121.104L7.27487 118.679L7.65775 115.615L4.72223 114.339L7.78538 110.51L2.68021 109.106L4.59468 103.235L3.06314 101.066L4.97761 99.9171L0.893424 97.7473L4.21181 95.0671L0 93.7908L5.23286 91.1106L0.893424 90.0896L4.84992 86.7712L0.765736 83.4528L6.25384 80.1344L0 75.9226L7.78531 76.5608L3.44588 73.4976L7.27475 72.349L3.06294 70.5621L5.61553 69.7963L3.06294 66.6055H7.78524L5.4879 62.7767L8.55105 62.3938L7.01951 59.4582L11.2313 60.7345L8.42349 55.3741L15.571 55.757L14.2947 52.9491L17.6131 53.332L15.6986 45.5467L21.3144 46.4401L18.2512 41.335L26.675 44.781L24.7605 36.7404L27.3131 37.1233C27.3131 37.1233 36.1194 37.8891 35.4816 37.7615C34.8491 37.6256 35.1043 27.7983 35.1043 27.7983L38.9332 30.8615L39.699 27.2878C39.699 27.2878 41.9963 28.947 42.5068 29.2023C43.0174 29.4576 43.145 23.0761 43.145 23.0761L49.5265 28.5642L49.9094 21.1614L52.2067 22.0548L53.8659 21.4167L54.1212 19.1193L58.5882 24.0969V18.3535L61.2684 17.3325L64.7144 18.864L65.6079 12.0997L69.5644 17.9707L70.0749 13.5036C70.0749 13.5036 71.3512 13.2484 71.6064 12.7378C71.8617 12.2273 72.1169 10.5681 72.1169 10.5681L75.0525 12.9931L76.3287 8.39838L78.7537 9.67468V8.01552L84.1142 10.8233L85.3905 4.95238L87.8154 6.86685L89.2194 3.42084L90.1128 7.24972L92.5377 4.69713L95.0903 7.24972L99.0468 3.54846L99.3021 5.33531L102.748 3.93139L104.28 7.63265L107.853 3.42084L107.726 7.63265L110.023 4.82482L110.278 7.88796L112.831 4.82482L112.958 10.8234L116.787 6.6116L119.34 11.7168L119.468 15.1628L126.487 12.355L126.87 16.4391L132.352 21.5522Z" fill="black"/>
<path opacity="0.35452" d="M25.3405 122.407L30.0334 117.353L32.1994 118.617L39.5995 110.675L39.9605 112.841L47.722 106.162L52.054 102.914L54.0394 102.553L59.9958 97.6791L64.5081 96.9571L70.645 93.1667L70.284 91.3617L73.3524 87.9323L75.8793 88.6543L78.7673 86.8493L84.5432 79.81L95.0122 70.6047L100.608 65.9118L101.691 63.0238L108.549 57.6089L110.354 54.5405L116.491 51.8331L118.837 47.6817L125.516 44.7937L125.336 42.2668L131.472 40.4618L131.111 36.6714L136.165 34.1444L134.36 32.8809L139.414 29.0905L137.248 28.188L137.068 26.0221L134.721 24.9391L121.725 19.7047L117.394 9.41644L112.881 16.8166L110.535 12.8456L107.827 16.6361L100.607 7.97223L97.7192 16.0946H94.8313L94.1093 18.08L91.2214 16.6361L88.6945 19.7045L80.7528 13.5676L80.9333 24.0367L76.6014 21.5097L74.7964 23.3147L75.1574 28.7296L71.006 24.9392L69.0206 25.1197L66.8546 31.7983L56.9271 31.4373L51.1512 38.8374L44.6534 39.1984L44.4729 44.2523L38.336 44.0718L37.0725 45.8767V53.2769L33.6431 52.3744L27.3257 47.501L32.1991 56.7063L22.633 56.1648L24.2575 67.1753L16.6767 72.9512L17.7596 76.7416L8.91509 76.2001L13.7885 81.615L8.37359 83.6005L8.01259 86.8494L11.6225 91.3618L11.442 96.0547L5.84666 99.484L6.74913 101.65L11.442 102.733L11.9835 107.065L5.48563 108.689L10.1785 110.494L8.55405 112.48L10.1785 114.285H12.525L9.99806 116.27L10.9005 118.436L12.525 119.519L14.8714 121.685L16.6764 123.851H20.6473L22.9938 120.963L23.5353 123.671L25.3405 122.407Z" fill="black"/>
<path d="M26.6596 122.407L31.3525 117.353L33.5185 118.617L40.9186 110.675L41.2796 112.841L49.0411 106.162L53.3731 102.914L55.3585 102.553L61.3149 97.6791L65.8272 96.9571L71.9641 93.1667L71.6031 91.3617L74.6715 87.9323L77.1984 88.6543L80.0864 86.8493L85.8623 79.81L96.3313 70.6047L101.927 65.9118L103.01 63.0238L109.868 57.6089L111.673 54.5405L117.81 51.8331L120.157 47.6817L126.835 44.7937L126.655 42.2668L132.791 40.4618L132.43 36.6714L137.484 34.1444L135.679 32.8809L140.733 29.0905L138.567 28.188L138.387 26.0221L136.04 24.9391L123.045 19.7047L118.713 9.41644L114.2 16.8166L111.854 12.8456L109.146 16.6361L101.926 7.97223L99.0383 16.0946H96.1504L95.4284 18.08L92.5405 16.6361L90.0136 19.7045L82.0719 13.5676L82.2524 24.0367L77.9205 21.5097L76.1155 23.3147L76.4765 28.7296L72.3251 24.9392L70.3397 25.1197L68.1737 31.7983L58.2462 31.4373L52.4703 38.8374L45.9725 39.1984L45.792 44.2523L39.6551 44.0718L38.3916 45.8767V53.2769L34.9622 52.3744L28.6448 47.501L33.5182 56.7063L23.9521 56.1648L25.5766 67.1753L17.9958 72.9512L19.0787 76.7416L10.2342 76.2001L15.1076 81.615L9.69269 83.6005L9.3317 86.8494L12.9416 91.3618L12.7611 96.0547L7.16577 99.484L8.06824 101.65L12.7611 102.733L13.3026 107.065L6.80473 108.689L11.4976 110.494L9.87316 112.48L11.4976 114.285H13.8441L11.3172 116.27L12.2196 118.436L13.8441 119.519L16.1905 121.685L17.9955 123.851H21.9664L24.3129 120.963L24.8544 123.671L26.6596 122.407Z" fill="url(#paint4_linear_1_49)"/>
<g filter="url(#filter0_f_1_49)">
<path d="M35.6163 113.562C38.2962 113.074 40.061 110.373 41.9978 108.457C44.5772 105.906 46.0706 102.317 48.8901 100.033C51.1968 98.1652 54.1312 97.2421 56.8034 95.9493C60.3341 94.2409 64.1514 93.101 67.5243 91.0993C72.7489 87.999 77.4538 84.0686 82.074 80.1231C87.1077 75.8247 91.9355 71.2549 96.3684 66.3392C98.0326 64.4938 99.1207 62.1359 100.963 60.4683C103.203 58.4406 106.202 57.4289 108.621 55.6183C112.338 52.8364 115.643 49.5426 119.087 46.4289C121.588 44.1677 124.191 42.0035 126.49 39.5366C128.653 37.214 130.754 34.7961 132.47 32.1259C133.198 30.9942 134.023 29.8375 134.275 28.516C134.536 27.1516 134.389 25.67 133.914 24.3646C133.413 22.9842 132.506 21.7064 131.388 20.7547C129.912 19.4992 128.008 18.786 126.153 18.2278C122.723 17.1956 119.081 16.9612 115.504 16.7838C112.137 16.6169 108.69 16.4247 105.397 17.1448C101.576 17.98 97.9449 19.6872 94.5667 21.6572C92.7889 22.6939 91.4513 24.3777 89.6933 25.4477C86.014 27.687 81.8572 29.0257 77.9613 30.8625C76.3305 31.6314 74.4267 32.0014 73.0879 33.209C72.4059 33.8241 72.3304 34.9455 71.6439 35.5555C66.9351 39.7394 59.8228 40.1343 54.497 43.4971C51.39 45.4589 48.3896 47.7334 46.0139 50.5365C43.8521 53.0869 42.2497 56.1157 40.96 59.2003C40.0705 61.3278 40.354 63.9089 39.155 65.8789C36.653 69.9894 31.6381 71.9727 28.5059 75.6257C25.823 78.7546 23.3577 82.164 21.6473 85.914C20.3268 88.809 19.2553 91.9402 19.1204 95.1193C19.0088 97.748 19.6485 100.412 20.5575 102.881C21.3491 105.031 22.3321 107.253 23.987 108.837C25.311 110.105 27.1764 110.663 28.8672 111.371C31.0498 112.284 33.2908 113.987 35.6183 113.563L35.6163 113.562Z" fill="#C5931D" fill-opacity="0.98824"/>
</g>
<path d="M101.815 7.32373L101.609 7.85961L98.8059 15.7742H96.1472H95.9205L95.838 15.9803L95.2403 17.6292L92.6846 16.3513L92.4578 16.2276L92.2929 16.4337L89.9639 19.2574L82.2763 13.3009L81.7404 12.8887V13.5688L81.9053 23.462L78.0923 21.236L77.8655 21.0918L77.68 21.2773L75.8869 23.091L75.7838 23.1941V23.3384L76.093 27.9552L72.5479 24.6987L72.4292 24.5984L72.2849 24.619L70.2857 24.8045L70.0796 24.8251L70.0178 25.0313L67.9361 31.4824L58.2473 31.1118H58.0824L57.9793 31.2354L52.2702 38.5109L45.9426 38.8819H45.6334V39.1911L45.4685 43.9316L39.6563 43.7461H39.4708L39.3677 43.8904L38.1105 45.6835L38.0487 45.7866V45.8896V52.8558L35.0807 52.0519H35.0395L28.8356 47.2496L28.341 47.6618L32.9166 56.3389L23.9507 55.8442L23.5591 55.8236L23.6003 56.2152L25.208 67.0358L17.788 72.7038L17.6025 72.8274L17.6643 73.0542L18.6124 76.3931L10.2428 75.8787L9.43812 75.8391L9.974 76.4368L14.529 81.4865L9.56178 83.3002L9.37629 83.362L9.35571 83.5681L8.98472 86.8247L8.96413 86.9483L9.04657 87.072L12.5916 91.4621L12.4061 95.8934L6.96487 99.2118L6.73815 99.356L6.84121 99.624L7.74809 101.788L7.8099 101.932L7.97479 101.974L12.4267 103.004L12.9214 106.817L6.69691 108.384L5.687 108.631L6.67632 109.002L10.9428 110.651L9.60315 112.279L9.41765 112.506L9.60315 112.712L11.2314 114.505L11.3345 114.629H11.4788H12.8597L11.0872 116.01L10.9017 116.175L11.0047 116.401L11.8911 118.565L11.9323 118.668L12.0147 118.71L13.6017 119.761L13.6429 119.802L15.9101 121.904L17.7239 124.068L17.827 124.192H17.9712H21.9491H22.114L22.1964 124.068L24.1132 121.719L24.5048 123.739L24.6079 124.233L25.0201 123.945L26.8338 122.688L26.8544 122.667L26.875 122.646L31.3888 117.782L33.3262 118.916L33.553 119.04L33.7385 118.854L40.6842 111.393L40.9315 112.898L41.0345 113.475L41.4674 113.104L49.2171 106.426H49.2376L53.4835 103.252L55.4003 102.881L55.4827 102.86L55.5445 102.819L61.4186 98.0168L65.8705 97.2954L65.9323 97.2748L65.9736 97.2543L72.1156 93.4619L72.3217 93.3382L72.2599 93.1115L71.9507 91.4626L74.7744 88.3092L77.0828 88.9893L77.2271 89.0099L77.3508 88.9481L80.2363 87.1343L80.2981 87.1137L80.3187 87.0725L86.0691 80.0648L96.519 70.872L96.5396 70.8514L102.125 66.1727L102.187 66.1109L102.208 66.0285L103.259 63.2254L110.06 57.8665L110.101 57.8459L110.142 57.7841L111.874 54.8161L117.955 52.1337L118.037 52.0925L118.099 51.9895L120.387 47.9497L126.962 45.1054L127.189 45.0024L127.168 44.7757L127.003 42.5085L132.877 40.7771L133.145 40.7153L133.124 40.4268L132.774 36.8611L137.638 34.4497L138.133 34.2023L137.679 33.8726L136.257 32.8832L140.936 29.3587L141.39 29.0084L140.854 28.7816L138.875 27.9778L138.71 25.9991V25.8136L138.525 25.7312L136.175 24.6389L123.293 19.4655L119.027 9.28338L118.759 8.70628L118.429 9.24216L114.204 16.1674L112.143 12.6842L111.875 12.2514L111.586 12.6636L109.134 16.1057L102.188 7.75841L101.817 7.32558L101.815 7.32373ZM102.042 8.64283L108.885 16.8463L109.173 17.1761L109.421 16.8257L111.832 13.4455L113.914 16.9906L114.202 17.4646L114.491 16.9906L118.654 10.1478L122.735 19.8352L122.797 19.9589L122.921 20.0207L135.906 25.2352L135.926 25.2558L138.07 26.2452L138.235 28.2238L138.255 28.4093L138.441 28.4917L140.069 29.1719L135.473 32.6139L135.122 32.9025L135.493 33.1498L136.833 34.0979L132.278 36.3857L132.072 36.4888L132.093 36.7155L132.443 40.24L126.569 41.9507L126.301 42.0332L126.322 42.3011L126.487 44.589L120.035 47.3921L119.932 47.4333L119.87 47.5157L117.583 51.576L111.544 54.2348L111.441 54.276L111.399 54.3791L109.627 57.3883L102.805 62.7677L102.743 62.8295L102.701 62.912L101.65 65.715L96.1266 70.3525H96.106L85.6357 79.5657L85.6151 79.5863V79.6068L79.844 86.6145L79.8235 86.6351L77.144 88.3046L74.7532 87.6245L74.5677 87.5626L74.4234 87.7069L71.3524 91.149L71.2494 91.2727L71.2906 91.4375L71.5997 93.004L65.7257 96.6315L61.2737 97.3529L61.1707 97.3735L61.1089 97.4353L55.2142 102.258L53.318 102.588L53.2355 102.609L53.1737 102.65L48.8454 105.906H48.8248L41.5078 112.213L41.2399 110.626L41.1368 109.967L40.6834 110.461L33.4488 118.211L31.5114 117.077L31.2846 116.933L31.1197 117.139L26.4617 122.148L26.4205 122.189L25.0808 123.116L24.6274 120.911L24.5037 120.21L24.0503 120.767L21.8243 123.529H18.1555L16.4448 121.467H16.4242V121.447L14.0746 119.283L14.054 119.262L14.0334 119.242L12.4876 118.232L11.725 116.377L14.054 114.542L14.796 113.965H13.8479H11.6631L10.3028 112.481L11.7456 110.709L12.0341 110.358L11.6219 110.194L7.91197 108.751L13.3738 107.39L13.6624 107.308L13.6211 107.019L13.0853 102.691L13.0647 102.464L12.8377 102.423L8.30333 101.372L7.58193 99.6202L12.9408 96.3431L13.085 96.24V96.0751L13.2705 91.3758V91.2522L13.2087 91.1491L9.68424 86.7796L9.9934 83.8529L15.2286 81.9361L15.682 81.7506L15.3522 81.4002L11.0239 76.5772L19.0625 77.0719L19.516 77.0925L19.3923 76.6596L18.3824 73.0734L25.7819 67.4466L25.9261 67.323L25.9056 67.1375L24.3391 56.5227L33.5108 57.038L34.0879 57.0792L33.82 56.5639L29.6566 48.6902L34.7681 52.6475L34.8093 52.6887H34.8711L38.3131 53.5956L38.7254 53.6987V53.2864V45.9905L39.8177 44.4035L45.7742 44.589H46.104L46.1246 44.2592L46.2895 39.5187L52.4933 39.1683H52.6376L52.7407 39.0447L58.4087 31.7692L68.1575 32.1402H68.4048L68.4872 31.9135L70.5895 25.421L72.1972 25.2973L76.2575 28.9867L76.8552 29.5226L76.814 28.7188L76.443 23.4424L77.9888 21.9172L82.0905 24.3286L82.5851 24.6172V24.0401L82.4202 14.2497L89.8197 19.9589L90.067 20.165L90.2731 19.9177L92.6228 17.0527L95.2815 18.3718L95.6113 18.5367L95.735 18.1863L96.3739 16.4344H99.0327H99.28L99.3418 16.2077L102.042 8.64283Z" fill="#767B1A" fill-opacity="0.99216"/>
<path d="M36.2758 112.243C38.8603 111.382 40.7205 109.054 42.6574 107.138C45.2367 104.587 46.7301 100.998 49.5496 98.7144C51.8563 96.8461 54.7907 95.923 57.4629 94.6302C60.9936 92.9218 64.8109 91.7819 68.1839 89.7803C73.4084 86.6799 78.1134 82.7495 82.7335 78.8041C87.7672 74.5056 92.5951 69.9358 97.0279 65.0201C98.6921 63.1747 99.7802 60.8168 101.623 59.1492C103.863 57.1215 106.861 56.1098 109.281 54.2993C112.997 51.5173 116.303 48.2235 119.746 45.1098C122.247 42.8486 124.851 40.6844 127.149 38.2175C129.313 35.8949 131.413 33.477 133.13 30.8068C133.857 29.6751 134.683 28.5184 134.935 27.1969C135.195 25.8325 135.049 24.3509 134.574 23.0455C134.072 21.6651 133.166 20.3873 132.047 19.4356C130.571 18.1801 128.668 17.4669 126.813 16.9087C123.382 15.8765 119.741 15.6421 116.164 15.4647C112.796 15.2978 109.349 15.1056 106.056 15.8257C102.236 16.661 98.6045 18.3681 95.2262 20.3381C93.4484 21.3748 92.1108 23.0586 90.3528 24.1286C86.6735 26.3679 82.5168 27.7066 78.6208 29.5435C76.99 30.3124 75.0862 30.6823 73.7474 31.8899C73.0654 32.5051 72.99 33.6264 72.3034 34.2364C67.5947 38.4203 60.4824 38.8153 55.1565 42.178C52.0495 44.1398 49.0492 46.4143 46.6734 49.2174C44.5116 51.7678 42.9092 54.7966 41.6195 57.8812C40.73 60.0087 41.0136 62.5898 39.8145 64.5598C37.3125 68.6703 32.2977 70.6536 29.1655 74.3066C26.4826 77.4355 24.0172 80.8449 22.3068 84.5949C20.9863 87.4899 20.3144 90.6635 19.7799 93.8002C19.3443 96.3568 18.6564 99.0343 19.2384 101.562C19.7526 103.794 21.0968 105.851 22.6679 107.518C24.5445 109.51 26.9177 111.204 29.5265 112.031C31.6729 112.71 34.1417 112.955 36.2777 112.243L36.2758 112.243Z" fill="url(#paint5_linear_1_49)"/>
<g opacity="0.63545" filter="url(#filter1_f_1_49)">
<path d="M123.576 21.0892C122.569 21.1012 121.919 21.1883 121.508 21.2743C119.86 21.6195 117.608 22.5371 115.129 23.9218C116.269 23.2854 115.069 24.6802 110.78 27.1803C105.569 30.2175 101.169 31.4934 98.5442 32.6789C97.8854 32.9764 97.9112 32.9865 97.481 33.1973C97.0005 33.7522 96.4365 34.3295 95.7219 34.9376C86.7317 42.5884 78.8859 42.7146 77.9382 43.2875C75.6743 44.6566 73.9278 46.0347 72.951 47.1384C72.1584 48.0342 71.2026 49.5947 70.3029 51.6558C71.3122 49.3438 71.9805 52.6542 67.732 59.3393C62.3267 67.8444 56.4766 69.7533 56.5013 69.7254C54.4546 72.0116 52.9107 74.1837 52.036 76.0202C51.6141 76.9062 51.1118 78.6849 50.6636 81.2041C51.1886 80.1081 52.7111 77.5519 57.5259 73.8169C62.2673 70.1388 66.1437 69.2252 67.4613 68.6145C72.0507 66.4876 75.2342 65.5093 76.5468 64.7636C80.233 62.6685 84.1093 59.6264 88.3768 56.1364C92.7606 52.5511 96.8814 48.8019 100.574 44.8799C100.323 45.1464 101.426 42.5192 105.793 38.7333C110.578 34.5857 113.923 33.6295 113.931 33.6234C116.434 31.829 119.281 29.1746 122.823 26.1065C125.154 24.0881 126.911 22.6101 128.294 21.2744C128.022 21.2592 127.844 21.2324 127.559 21.2188C125.995 21.1446 124.637 21.0766 123.577 21.0892L123.576 21.0892ZM99.6842 29.5499C99.6464 29.6329 99.4127 30.0762 99.3169 30.3089C99.7161 29.6631 99.78 29.3397 99.6842 29.5499Z" fill="url(#paint6_radial_1_49)"/>
</g>
<path d="M47.2567 71.6978C46.427 72.6343 47.9861 76.3344 48.988 78.4186C50.2352 81.0172 52.1802 83.253 54.1615 85.3438C55.5987 86.8674 58.628 87.3027 58.9841 89.3671C59.1952 90.607 57.0787 91.3787 57.0464 92.645C57.0325 93.199 57.3155 93.8784 57.665 94.5379C61.1342 92.8825 64.8673 91.7414 68.1782 89.776C72.5972 87.151 76.6468 83.9456 80.5843 80.628C79.8127 80.7204 78.3419 80.9314 77.4119 81.3074C75.6443 82.0197 74.279 83.4707 72.6104 84.3743C71.2451 85.113 69.8799 85.8912 68.3827 86.2936C67.0768 86.6431 65.6983 86.9069 64.366 86.6827C62.981 86.4584 61.7938 85.5153 60.5077 84.9547C58.4037 84.0313 56.0247 83.6158 54.1615 82.2769C52.357 80.9776 50.9554 79.1375 49.7504 77.2643C48.647 75.5561 47.2567 71.6978 47.2567 71.6978Z" fill="url(#paint7_linear_1_49)"/>
<path d="M74.3779 31.4685C74.3779 31.4685 73.5874 32.194 72.8734 33.1173C72.5164 33.579 72.1834 34.0785 71.9665 34.6013C71.7496 35.1242 71.6502 35.6855 71.8635 36.1883C72.0067 36.5263 72.2675 36.7553 72.5642 36.8891C72.861 37.0228 73.1824 37.0882 73.5123 37.1158C74.1722 37.171 74.878 37.1293 75.3467 37.2395C76.5684 37.5267 77.8001 37.5333 78.8299 37.9609C80.7519 38.7587 82.3314 40.3261 84.2093 41.506C86.0368 42.6541 88.0641 43.4184 89.6093 44.7418C91.7182 46.5481 93.3972 48.8607 94.9887 51.193C96.1071 52.8321 96.6177 54.9807 97.9979 56.6549C98.4868 57.2479 99.3075 57.9199 100.018 58.4686C100.728 59.0174 101.316 59.4167 101.316 59.4167L101.687 58.8808C101.687 58.8808 101.104 58.4902 100.409 57.9534C99.7145 57.4165 98.9037 56.7207 98.4927 56.2221C97.2427 54.706 96.7367 52.5983 95.5247 50.822C93.9265 48.4799 92.2314 46.1015 90.0422 44.2265C88.3786 42.8017 86.3097 42.0488 84.5597 40.9494C82.7667 39.8229 81.1592 38.2068 79.0772 37.3424C77.8854 36.8477 76.6108 36.8637 75.4909 36.6004C74.8659 36.4535 74.1614 36.5053 73.5741 36.4562C73.2805 36.4316 73.017 36.3746 72.8321 36.2913C72.6473 36.208 72.5371 36.0995 72.4611 35.9203C72.3498 35.6578 72.404 35.3049 72.5848 34.8691C72.7656 34.4333 73.0738 33.9426 73.4092 33.5088C74.0802 32.6411 74.8314 31.9629 74.8314 31.9629L74.3779 31.4685Z" fill="#E4B832"/>
<defs>
<filter id="filter0_f_1_49" x="18.3031" y="15.8238" width="116.905" height="98.6102" filterUnits="userSpaceOnUse" color-interpolation-filters="sRGB">
<feFlood flood-opacity="0" result="BackgroundImageFix"/>
<feBlend mode="normal" in="SourceGraphic" in2="BackgroundImageFix" result="shape"/>
<feGaussianBlur stdDeviation="0.402353" result="effect1_foregroundBlur_1_49"/>
</filter>
<filter id="filter1_f_1_49" x="45.4423" y="15.8665" width="88.0724" height="70.5588" filterUnits="userSpaceOnUse" color-interpolation-filters="sRGB">
<feFlood flood-opacity="0" result="BackgroundImageFix"/>
<feBlend mode="normal" in="SourceGraphic" in2="BackgroundImageFix" result="shape"/>
<feGaussianBlur stdDeviation="2.61061" result="effect1_foregroundBlur_1_49"/>
</filter>
<linearGradient id="paint0_linear_1_49" x1="140.239" y1="21.4276" x2="134.402" y2="13.7696" gradientUnits="userSpaceOnUse">
<stop stop-color="#A6A346"/>
<stop offset="0.5" stop-color="#908022" stop-opacity="0.98824"/>
<stop offset="1" stop-color="#5C4000" stop-opacity="0.98824"/>
</linearGradient>
<linearGradient id="paint1_linear_1_49" x1="92.5486" y1="208.442" x2="109.4" y2="19.5525" gradientUnits="userSpaceOnUse">
<stop stop-color="#747725"/>
<stop offset="1" stop-color="#938426" stop-opacity="0.98824"/>
</linearGradient>
<radialGradient id="paint2_radial_1_49" cx="0" cy="0" r="1" gradientUnits="userSpaceOnUse" gradientTransform="translate(77.9989 73.8804) scale(77.3452 70.453)">
<stop stop-color="#644304"/>
<stop offset="1" stop-color="#644304" stop-opacity="0"/>
</radialGradient>
<linearGradient id="paint3_linear_1_49" x1="75.8026" y1="34.5618" x2="54.3151" y2="-5.99189" gradientUnits="userSpaceOnUse">
<stop stop-color="#63510D"/>
<stop offset="1" stop-color="#99732D"/>
</linearGradient>
<linearGradient id="paint4_linear_1_49" x1="6.8072" y1="65.9148" x2="159.862" y2="-69.2907" gradientUnits="userSpaceOnUse">
<stop stop-color="#FBF4C6"/>
<stop offset="1" stop-color="#E6E6E6"/>
</linearGradient>
<linearGradient id="paint5_linear_1_49" x1="112.506" y1="28.2544" x2="-25.5305" y2="159.995" gradientUnits="userSpaceOnUse">
<stop stop-color="#F5CD3D"/>
<stop offset="1" stop-color="#F5CD3D" stop-opacity="0"/>
</linearGradient>
<radialGradient id="paint6_radial_1_49" cx="0" cy="0" r="1" gradientUnits="userSpaceOnUse" gradientTransform="translate(84.2047 51.1457) scale(45.9253 36.5806)">
<stop stop-color="white"/>
<stop offset="1" stop-color="white" stop-opacity="0"/>
</radialGradient>
<linearGradient id="paint7_linear_1_49" x1="112.506" y1="28.2546" x2="-25.5304" y2="159.995" gradientUnits="userSpaceOnUse">
<stop stop-color="#F5CD3D"/>
<stop offset="1" stop-color="#F5CD3D" stop-opacity="0"/>
</linearGradient>
</defs>
</svg>
